<svg width="19" height="20" viewBox="0 0 19 20" fill="none" xmlns="http://www.w3.org/2000/svg">
<path d="M16.4617 13.558C16.0498 12.8485 15.4375 10.8409 15.4375 8.21875C15.4375 6.64403 14.8119 5.1338 13.6984 4.0203C12.5849 2.90681 11.0747 2.28125 9.49999 2.28125C7.92527 2.28125 6.41505 2.90681 5.30155 4.0203C4.18805 5.1338 3.56249 6.64403 3.56249 8.21875C3.56249 10.8416 2.94945 12.8485 2.53753 13.558C2.43234 13.7384 2.37658 13.9434 2.37586 14.1522C2.37514 14.361 2.4295 14.5663 2.53345 14.7474C2.6374 14.9285 2.78726 15.079 2.96793 15.1837C3.1486 15.2884 3.35368 15.3436 3.56249 15.3438H6.59136C6.72835 16.0141 7.09265 16.6165 7.62266 17.0491C8.15266 17.4818 8.81583 17.7181 9.49999 17.7181C10.1842 17.7181 10.8473 17.4818 11.3773 17.0491C11.9073 16.6165 12.2716 16.0141 12.4086 15.3438H15.4375C15.6462 15.3435 15.8512 15.2882 16.0318 15.1834C16.2124 15.0787 16.3621 14.9282 16.466 14.7471C16.5698 14.566 16.6241 14.3607 16.6234 14.152C16.6226 13.9432 16.5669 13.7384 16.4617 13.558ZM9.49999 16.5312C9.13174 16.5311 8.77256 16.4169 8.47191 16.2042C8.17127 15.9916 7.94392 15.6909 7.82117 15.3438H11.1788C11.0561 15.6909 10.8287 15.9916 10.5281 16.2042C10.2274 16.4169 9.86825 16.5311 9.49999 16.5312ZM3.56249 14.1562C4.13398 13.1736 4.74999 10.8966 4.74999 8.21875C4.74999 6.95897 5.25044 5.75079 6.14124 4.85999C7.03203 3.9692 8.24022 3.46875 9.49999 3.46875C10.7598 3.46875 11.968 3.9692 12.8588 4.85999C13.7495 5.75079 14.25 6.95897 14.25 8.21875C14.25 10.8943 14.8645 13.1714 15.4375 14.1562H3.56249Z" fill="#87748C"/>
<circle cx="14" cy="4.5" r="3" fill="#FFA500"/>
</svg>
