<svg width="390" height="364" viewBox="0 0 390 364" fill="none" xmlns="http://www.w3.org/2000/svg">
<g clip-path="url(#clip0_781_911)">
<mask id="mask0_781_911" style="mask-type:luminance" maskUnits="userSpaceOnUse" x="-176" y="-153" width="751" height="501">
<path d="M-175.94 347.9H574.06V-152.1H-175.94V347.9Z" fill="white"/>
</mask>
<g mask="url(#mask0_781_911)">
<path d="M108.73 51.47C110.773 53.796 112.005 56.723 112.24 59.81L107.29 61.89C107.055 58.803 105.823 55.876 103.78 53.55L108.73 51.47Z" fill="url(#paint0_linear_781_911)"/>
<path d="M145.33 -0.540009C147.897 0.076149 150.195 1.50766 151.88 3.53998L149.47 7.42999C147.782 5.39585 145.48 3.96415 142.91 3.34998L145.33 -0.540009Z" fill="url(#paint1_linear_781_911)"/>
<path d="M208.46 7.94998C212.139 5.71317 216.445 4.73064 220.73 5.14999L222.39 12.43C218.105 12.0106 213.799 12.9932 210.12 15.23L208.46 7.94998Z" fill="url(#paint2_linear_781_911)"/>
<path d="M237.26 35.08C242.127 36.0458 246.548 38.5654 249.86 42.26L247.73 46.41C244.421 42.7114 239.998 40.191 235.13 39.23L237.26 35.08Z" fill="url(#paint3_linear_781_911)"/>
<path d="M272.16 37.55C274.497 34.5363 277.751 32.3638 281.43 31.36L285.11 36.86C281.431 37.8658 278.179 40.0379 275.84 43.05L272.16 37.55Z" fill="url(#paint4_linear_781_911)"/>
<path d="M356.28 93.65C359.86 89.73 373.53 85.65 373.53 85.65L376.21 90.34C376.21 90.34 362.53 94.44 358.95 98.34L356.28 93.65Z" fill="url(#paint5_linear_781_911)"/>
<path d="M263.93 5.78C271.46 5.69 297.23 10.2 297.23 10.2L295.06 13.55C295.06 13.55 269.28 9.02999 261.75 9.12L263.93 5.78Z" fill="url(#paint6_linear_781_911)"/>
<path d="M295.79 126.7C304.33 128.37 313.71 135.87 313.71 135.87L311.71 139.75C311.71 139.75 302.33 132.25 293.78 130.55L295.79 126.7Z" fill="url(#paint7_linear_781_911)"/>
<path d="M224.33 133.82C227.2 133.769 230.008 134.653 232.33 136.34L230.84 141.08C228.515 139.399 225.709 138.515 222.84 138.56L224.33 133.82Z" fill="url(#paint8_linear_781_911)"/>
<path d="M158.33 62.08C159.658 64.4284 160.185 67.1455 159.83 69.82L155.24 70.71C155.595 68.0355 155.068 65.3184 153.74 62.97L158.33 62.08Z" fill="url(#paint9_linear_781_911)"/>
<path d="M140.52 109.35C145.395 110.776 149.676 113.744 152.72 117.81L147.72 125.05C144.676 120.984 140.395 118.016 135.52 116.59L140.52 109.35Z" fill="url(#paint10_linear_781_911)"/>
<path d="M107.9 164.83C111.545 168.033 114.054 172.331 115.05 177.08L107.78 181.32C106.789 176.569 104.28 172.269 100.63 169.07L107.9 164.83Z" fill="url(#paint11_linear_781_911)"/>
<path d="M26.02 118.06C28.6186 117.515 31.3238 117.828 33.73 118.95L33.2 123.52C30.7975 122.397 28.0953 122.085 25.5 122.63L26.02 118.06Z" fill="url(#paint12_linear_781_911)"/>
<path d="M248.8 77.01C250.974 72.6608 254.501 69.1344 258.85 66.96L264.85 72.96C260.527 75.1301 257.02 78.6372 254.85 82.96L248.8 77.01Z" fill="url(#paint13_linear_781_911)"/>
<path d="M175.18 139.72C178.129 137.295 181.785 135.891 185.6 135.72L187.96 141.9C184.149 142.072 180.496 143.475 177.55 145.9L175.18 139.72Z" fill="url(#paint14_linear_781_911)"/>
<path d="M115.77 121.15C118.139 124.709 119.287 128.942 119.04 133.21L111.89 135.15C112.131 130.882 110.984 126.651 108.62 123.09L115.77 121.15Z" fill="url(#paint15_linear_781_911)"/>
<path d="M0.51001 167.05C2.62779 163.919 5.70566 161.56 9.28003 160.33L13.28 165.53C9.7016 166.763 6.62039 169.125 4.50003 172.26L0.51001 167.05Z" fill="url(#paint16_linear_781_911)"/>
<path d="M282.69 85.62C286.586 87.5659 289.744 90.7243 291.69 94.62L286.33 99.93C284.387 96.0321 281.228 92.8729 277.33 90.93L282.69 85.62Z" fill="url(#paint17_linear_781_911)"/>
<path d="M219.51 91.11C224.393 91.3006 229.082 93.0729 232.87 96.16L229.87 104.09C226.071 101.022 221.38 99.2678 216.5 99.09L219.51 91.11Z" fill="url(#paint18_linear_781_911)"/>
<path d="M214.2 111.41C217.554 115.062 219.632 119.705 220.12 124.64L212.26 128.15C211.768 123.214 209.687 118.572 206.33 114.92L214.2 111.41Z" fill="url(#paint19_linear_781_911)"/>
<path d="M86.56 154.16C89.0722 149.444 93.0484 145.671 97.89 143.41L104.27 150.13C99.4284 152.391 95.4522 156.164 92.94 160.88L86.56 154.16Z" fill="url(#paint20_linear_781_911)"/>
<path d="M63.89 272.06C65.6948 269.501 68.2808 267.595 71.26 266.63L74.49 271C71.5071 271.963 68.9174 273.869 67.11 276.43L63.89 272.06Z" fill="url(#paint21_linear_781_911)"/>
<path d="M107.8 318.91C108.832 315.091 111.079 311.711 114.2 309.28L119.91 313.08C116.792 315.514 114.547 318.893 113.51 322.71L107.8 318.91Z" fill="url(#paint22_linear_781_911)"/>
<path d="M224.76 1.97C227.747 0.50177 231.129 0.0420704 234.4 0.659973L235.17 6.37997C231.901 5.76117 228.519 6.21725 225.53 7.67999L224.76 1.97Z" fill="url(#paint23_linear_781_911)"/>
<path d="M198.52 74.83C200.502 72.6622 203.134 71.1955 206.02 70.65L208.5 75.1C205.614 75.6455 202.982 77.1122 201 79.28L198.52 74.83Z" fill="url(#paint24_linear_781_911)"/>
<path d="M305.03 74.03C307.102 69.5894 310.559 65.9404 314.88 63.63L321.05 69.48C316.724 71.7881 313.264 75.4375 311.19 79.88L305.03 74.03Z" fill="url(#paint25_linear_781_911)"/>
<path d="M313.04 12.7C313.875 8.99333 315.893 5.65891 318.79 3.19998L324.43 6.60999C321.535 9.07437 319.517 12.4114 318.68 16.12L313.04 12.7Z" fill="url(#paint26_linear_781_911)"/>
<path d="M348.16 15.33C352.736 15.9679 356.982 18.0733 360.26 21.33L356.7 28.5C353.424 25.241 349.177 23.1352 344.6 22.5L348.16 15.33Z" fill="url(#paint27_linear_781_911)"/>
<path d="M331.33 183.48C333.746 186.905 334.988 191.02 334.87 195.21L327.87 197.31C328 193.109 326.758 188.981 324.33 185.55L331.33 183.48Z" fill="url(#paint28_linear_781_911)"/>
<path d="M190.72 90.67C194.888 89.6409 199.278 89.9918 203.23 91.67L202.62 99.09C198.668 97.4125 194.278 97.0616 190.11 98.09L190.72 90.67Z" fill="url(#paint29_linear_781_911)"/>
<path d="M203.4 163.26C211.81 161.26 213.59 165.02 213.59 165.02L213.25 168.17C213.25 168.17 211.48 164.38 203.06 166.41L203.4 163.26Z" fill="url(#paint30_linear_781_911)"/>
<path d="M188.94 191.55C191.042 194.672 192.074 198.392 191.88 202.15L185.59 203.9C185.784 200.141 184.753 196.422 182.65 193.3L188.94 191.55Z" fill="url(#paint31_linear_781_911)"/>
<path d="M157.2 231.32C163.89 235.32 169.99 245.72 169.99 245.72L166.99 246.64C166.99 246.64 160.89 236.25 154.19 232.24L157.2 231.32Z" fill="url(#paint32_linear_781_911)"/>
<path d="M274.94 107.4C277.729 111.374 279.151 116.147 278.99 121L270.91 123.4C271.083 118.553 269.68 113.781 266.91 109.8L274.94 107.4Z" fill="url(#paint33_linear_781_911)"/>
<path d="M188.33 130.49C191.563 131.824 194.276 134.172 196.06 137.18L192.06 141.77C190.27 138.763 187.555 136.416 184.32 135.08L188.33 130.49Z" fill="url(#paint34_linear_781_911)"/>
<path d="M142.1 53.71C145.057 49.3495 149.348 46.0653 154.33 44.35L159.88 51.62C154.89 53.3296 150.591 56.6146 147.63 60.98L142.1 53.71Z" fill="url(#paint35_linear_781_911)"/>
<path d="M42.27 17.63C45.5217 15.7983 49.279 15.0686 52.9799 15.55L54.21 21.9C50.5101 21.4155 46.7528 22.1417 43.5 23.97L42.27 17.63Z" fill="url(#paint36_linear_781_911)"/>
<path d="M16.2701 257.74C20.0862 256.345 24.2523 256.23 28.1401 257.41L28.3401 264.41C24.4481 263.236 20.2809 263.352 16.4601 264.74L16.2701 257.74Z" fill="url(#paint37_linear_781_911)"/>
<path d="M120.75 266.63C123.378 270.174 124.782 274.478 124.75 278.89L117.47 281.23C117.501 276.818 116.097 272.515 113.47 268.97L120.75 266.63Z" fill="url(#paint38_linear_781_911)"/>
<path d="M164.09 290.7C166.374 289.243 169.069 288.57 171.77 288.78L172.91 293.34C170.209 293.13 167.514 293.803 165.23 295.26L164.09 290.7Z" fill="url(#paint39_linear_781_911)"/>
<path d="M257.28 199.05C258.994 196.943 261.345 195.448 263.98 194.79L266.51 198.79C263.875 199.448 261.524 200.943 259.81 203.05L257.28 199.05Z" fill="url(#paint40_linear_781_911)"/>
<path d="M6.85001 194.17C10.3052 192.527 14.2004 192.05 17.95 192.81L18.76 199.41C15.0083 198.644 11.1091 199.117 7.65002 200.76L6.85001 194.17Z" fill="url(#paint41_linear_781_911)"/>
<path d="M120.33 178.01C123.07 171.11 131.73 161.96 131.73 161.96L134.64 165.09C134.64 165.09 125.97 174.23 123.24 181.09L120.33 178.01Z" fill="url(#paint42_linear_781_911)"/>
<path d="M18.9201 346.3C24.7401 342.97 36.0301 341.4 36.0301 341.4L36.3301 345.25C36.3301 345.25 25.0401 346.82 19.2201 350.15L18.9201 346.3Z" fill="url(#paint43_linear_781_911)"/>
<path d="M115.62 226.9C118.821 225.523 122.381 225.218 125.77 226.03L126.29 232.03C122.899 231.211 119.335 231.513 116.13 232.89L115.62 226.9Z" fill="url(#paint44_linear_781_911)"/>
<path d="M177.57 175.82C178.505 172.42 180.52 169.416 183.31 167.26L188.39 170.66C185.602 172.818 183.588 175.822 182.65 179.22L177.57 175.82Z" fill="url(#paint45_linear_781_911)"/>
<path d="M83.6299 0.039978C86.3599 -6.86002 95.0299 -16.01 95.0299 -16.01L97.9399 -12.88C97.9399 -12.88 89.2699 -3.74001 86.5399 3.12L83.6299 0.039978Z" fill="url(#paint46_linear_781_911)"/>
<path d="M219.33 272.55C222.13 270.68 231.33 269.33 231.33 269.33L231.72 270.7C231.72 270.7 222.72 272.7 219.89 274.53L219.33 272.55Z" fill="url(#paint47_linear_781_911)"/>
<path d="M224.74 206.73C226.868 208.883 228.237 211.67 228.64 214.67L226.33 215.83C225.895 212.819 224.491 210.032 222.33 207.89L224.74 206.73Z" fill="url(#paint48_linear_781_911)"/>
<path d="M289.52 197.02C291.586 194.894 294.283 193.491 297.21 193.02L299.61 197.55C296.685 198.02 293.991 199.423 291.93 201.55L289.52 197.02Z" fill="url(#paint49_linear_781_911)"/>
<path d="M241.209 195.645L243.439 190.915L236.411 187.601L234.181 192.332L241.209 195.645Z" fill="url(#paint50_linear_781_911)"/>
<path d="M236.14 188.16C238.769 188.482 241.223 189.642 243.14 191.47L241.14 195.64C239.223 193.812 236.769 192.652 234.14 192.33L236.14 188.16Z" fill="url(#paint51_linear_781_911)"/>
<path d="M152.291 255.341L154.757 249.112L145.506 245.449L143.04 251.679L152.291 255.341Z" fill="url(#paint52_linear_781_911)"/>
<path d="M145.22 246.18C148.618 246.368 151.863 247.652 154.47 249.84L152.33 255.33C149.725 253.14 146.479 251.855 143.08 251.67L145.22 246.18Z" fill="url(#paint53_linear_781_911)"/>
<path d="M387.05 123.98C390.78 122.264 394.968 121.808 398.98 122.68L399.76 129.76C395.744 128.891 391.555 129.347 387.82 131.06L387.05 123.98Z" fill="url(#paint54_linear_781_911)"/>
<path d="M258.13 256.55C261.507 258.669 264.103 261.828 265.53 265.55L260.18 269.94C258.75 266.219 256.154 263.062 252.78 260.94L258.13 256.55Z" fill="url(#paint55_linear_781_911)"/>
<path d="M210.33 292.46C211.091 296.328 210.579 300.338 208.87 303.89L202.08 303.02C203.807 299.459 204.327 295.433 203.56 291.55L210.33 292.46Z" fill="url(#paint56_linear_781_911)"/>
<path d="M197.75 226.92C200.316 229.497 201.976 232.838 202.48 236.44L196.83 239.24C196.326 235.638 194.666 232.297 192.1 229.72L197.75 226.92Z" fill="url(#paint57_linear_781_911)"/>
<path d="M318.82 256.38C322.371 256.407 325.817 257.586 328.64 259.74L326.64 265.57C323.817 263.416 320.371 262.237 316.82 262.21L318.82 256.38Z" fill="url(#paint58_linear_781_911)"/>
<path d="M67.48 310.84C69.275 312.372 71.1475 313.81 73.09 315.15C75.004 316.529 76.9865 317.811 79.03 318.99C78.77 318.84 81.84 320.52 81.83 320.1C81.75 313.18 87.83 307.6 93.32 304.3C96.4167 302.448 99.902 301.342 103.5 301.07C105.047 300.991 106.598 301.099 108.12 301.39C108.833 301.522 109.537 301.696 110.23 301.91C110.48 301.98 110.73 302.08 110.97 302.17L111.86 302.73C113.119 303.638 114.499 304.366 115.96 304.89C117.2 305.23 115.5 303.6 115.58 303.68C114.123 302.309 112.58 301.033 110.96 299.86C102.54 293.46 93.48 287.45 82.59 290.36C74.97 292.36 65.4 299.97 65.5 308.58C65.51 309.37 67.05 310.47 67.48 310.84Z" fill="url(#paint59_linear_781_911)"/>
<path d="M381.53 55.67C383.64 56.72 385.83 57.62 388.03 58.46C390.23 59.3 392.47 60.08 394.74 60.7C394.46 60.62 397.84 61.48 397.74 61.08C395.95 54.4 400.47 47.48 404.95 42.93C407.492 40.3657 410.598 38.4309 414.02 37.28C415.497 36.8157 417.025 36.5336 418.57 36.44C419.293 36.4 420.017 36.4 420.74 36.44C421.01 36.44 421.27 36.44 421.53 36.51L422.53 36.83C423.972 37.3981 425.487 37.7616 427.03 37.91C428.32 37.91 426.27 36.78 426.36 36.83C424.613 35.8577 422.802 35.0057 420.94 34.28C411.2 30.17 400.94 26.58 391.1 32.1C384.22 35.96 376.83 45.67 379.1 53.99C379.25 54.73 381.03 55.42 381.53 55.67Z" fill="url(#paint60_linear_781_911)"/>
<path d="M143.27 152.11C143.937 145.937 144.603 139.767 145.27 133.6C145.2 134.29 134.22 133.91 134.13 134.76L132.18 153.27C132.25 152.59 143.18 152.97 143.31 152.11H143.27Z" fill="url(#paint61_linear_781_911)"/>
<path d="M208.65 255.46L191.91 245.95C192.53 246.3 187.63 256.54 188.4 256.95L205.14 266.46C204.52 266.11 209.42 255.87 208.65 255.46Z" fill="url(#paint62_linear_781_911)"/>
<path d="M45.5999 44.55C45.1599 45.22 51.74 53.36 52.2299 54.05C52.7199 54.74 59.33 62.97 59.04 63.41C64.6955 54.8475 72.7519 48.1443 82.2 44.14C80.86 44.72 70.4199 24.57 68.7599 25.28C59.3141 29.2879 51.2586 35.9904 45.5999 44.55Z" fill="url(#paint63_linear_781_911)"/>
<path d="M375.21 226.02C374.75 225.72 369.21 230.36 368.76 230.71C368.31 231.06 362.76 235.71 362.41 235.53C368.381 239.31 373.107 244.763 376 251.21C375.58 250.3 389.31 242.83 388.8 241.7C385.915 235.248 381.187 229.793 375.21 226.02Z" fill="url(#paint64_linear_781_911)"/>
<path d="M65.47 114.55C61.8533 107.074 56.4718 100.591 49.79 95.66C49.38 95.36 46.64 95.58 46.4 95.57C43.6666 95.57 40.9366 95.57 38.21 95.57C35.48 95.57 36.51 94.04 33.78 94.07C32.6547 94.1989 31.5201 94.2257 30.39 94.15C37.07 99.0873 42.4509 105.573 46.07 113.05C46.5 113.93 52.92 114.7 53.89 114.7C54.86 114.7 65.15 113.94 65.47 114.58V114.55Z" fill="url(#paint65_linear_781_911)"/>
<path d="M279.92 232.1C280.45 232.56 283.65 234.59 283.73 235.3C283.06 229.34 287.88 225.55 292.33 222.55C296.04 220.11 300.48 218.69 304.68 219.89L299.39 214.34C294.45 211.65 289.28 213.34 284.78 216.07C280.28 218.8 275.48 222.97 276.14 228.81C276.27 229.65 279.33 231.55 279.92 232.1Z" fill="url(#paint66_linear_781_911)"/>
<path d="M343.51 45.86C342.826 45.583 342.251 45.0918 341.87 44.46L342.7 43.46C343.081 44.0918 343.656 44.583 344.34 44.86L343.51 45.86Z" fill="url(#paint67_linear_781_911)"/>
<path d="M341.28 60.83C340.667 60.9703 340.026 60.9108 339.45 60.66L339.55 59.57C340.124 59.8272 340.768 59.887 341.38 59.74L341.28 60.83Z" fill="url(#paint68_linear_781_911)"/>
<path d="M326.93 65.76C326.386 66.627 325.576 67.2938 324.62 67.66L323.49 66.29C324.446 65.9238 325.256 65.257 325.8 64.39L326.93 65.76Z" fill="url(#paint69_linear_781_911)"/>
<path d="M316.27 63.7C315.13 64.0147 313.919 63.948 312.82 63.51L312.93 61.51C314.02 61.9177 315.211 61.9667 316.33 61.65L316.27 63.7Z" fill="url(#paint70_linear_781_911)"/>
<path d="M310.21 66.25C310.035 67.1386 309.575 67.9459 308.9 68.55L307.53 67.77C308.206 67.1651 308.669 66.3586 308.85 65.47L310.21 66.25Z" fill="url(#paint71_linear_781_911)"/>
<path d="M290.83 71.07C290.098 71.1524 289.358 70.9982 288.72 70.63L288.98 69.37C289.62 69.7452 290.363 69.903 291.1 69.82L290.83 71.07Z" fill="url(#paint72_linear_781_911)"/>
<path d="M271.13 52.76C270.235 53.4179 269.151 53.7686 268.04 53.76L267.47 51.93C268.578 51.9379 269.658 51.5871 270.55 50.93L271.13 52.76Z" fill="url(#paint73_linear_781_911)"/>
<path d="M258.12 40.31C257.351 40.9031 256.411 41.2328 255.44 41.25L254.89 39.65C255.861 39.6392 256.801 39.3128 257.57 38.72L258.12 40.31Z" fill="url(#paint74_linear_781_911)"/>
<path d="M27.3786 85.3803L30.0601 83.5164L28.8061 81.7124L26.1246 83.5763L27.3786 85.3803Z" fill="url(#paint75_linear_781_911)"/>
<path d="M29.4399 83.14C28.7682 84.0369 27.8247 84.6928 26.75 85.01L25.65 83.42C26.7223 83.1034 27.6628 82.4472 28.33 81.55L29.4399 83.14Z" fill="url(#paint76_linear_781_911)"/>
<path d="M6.12012 65.8C5.19849 66.5942 4.04399 67.068 2.83011 67.15L2.03012 65.2C3.24716 65.1187 4.40503 64.645 5.33011 63.85L6.12012 65.8Z" fill="url(#paint77_linear_781_911)"/>
<path d="M16.52 50.85C16.1028 51.3869 15.5245 51.7759 14.87 51.96L14.21 50.96C14.867 50.7753 15.4483 50.3865 15.87 49.85L16.52 50.85Z" fill="url(#paint78_linear_781_911)"/>
<path d="M39.6599 49.29C39.0279 49.1847 38.4462 48.8798 37.9999 48.42L38.5199 47.42C38.9626 47.8845 39.546 48.1903 40.1799 48.29L39.6599 49.29Z" fill="url(#paint79_linear_781_911)"/>
<path d="M33.54 38.94C32.547 39.6292 31.3582 39.9799 30.1501 39.94L29.5601 37.94C30.765 37.9792 31.9504 37.6285 32.94 36.94L33.54 38.94Z" fill="url(#paint80_linear_781_911)"/>
<path d="M28.0899 24.62C26.955 24.8176 25.7867 24.6421 24.7599 24.12L25.0499 22.12C26.08 22.6429 27.2518 22.8183 28.3899 22.62L28.0899 24.62Z" fill="url(#paint81_linear_781_911)"/>
<path d="M48.97 16.38C48.6847 16.9431 48.2252 17.3991 47.6599 17.68L46.89 16.9C47.4553 16.6191 47.9147 16.1631 48.2 15.6L48.97 16.38Z" fill="url(#paint82_linear_781_911)"/>
<path d="M201.8 0.039978C201.797 1.19709 201.422 2.32259 200.73 3.25L198.83 2.60999C199.523 1.68745 199.895 0.563691 199.89 -0.590027L201.8 0.039978Z" fill="url(#paint83_linear_781_911)"/>
<path d="M131.49 237.27C130.45 237.26 129.441 236.909 128.62 236.27L129.19 234.57C130.008 235.208 131.013 235.559 132.05 235.57L131.49 237.27Z" fill="url(#paint84_linear_781_911)"/>
<path d="M144.33 229.37C143.267 229.848 142.078 229.971 140.94 229.72L140.74 227.72C141.875 227.972 143.061 227.849 144.12 227.37L144.33 229.37Z" fill="url(#paint85_linear_781_911)"/>
<path d="M143.33 224.48C142.228 224.06 141.292 223.295 140.66 222.3L141.96 220.71C142.59 221.71 143.526 222.478 144.63 222.9L143.33 224.48Z" fill="url(#paint86_linear_781_911)"/>
<path d="M165.91 201.77C165.88 203.042 165.438 204.271 164.65 205.27L162.57 204.52C163.359 203.52 163.804 202.293 163.84 201.02L165.91 201.77Z" fill="url(#paint87_linear_781_911)"/>
<path d="M158.16 174.27C158.048 175.009 157.697 175.69 157.16 176.21L156.01 175.62C156.547 175.1 156.898 174.419 157.01 173.68L158.16 174.27Z" fill="url(#paint88_linear_781_911)"/>
<path d="M143.82 168.98C144.01 169.902 143.894 170.86 143.49 171.71L141.87 171.52C142.274 170.666 142.39 169.705 142.2 168.78L143.82 168.98Z" fill="url(#paint89_linear_781_911)"/>
<path d="M243.01 235.11C241.842 235.437 240.6 235.378 239.47 234.94L239.57 232.84C240.7 233.278 241.942 233.337 243.11 233.01L243.01 235.11Z" fill="url(#paint90_linear_781_911)"/>
<path d="M266.61 224.69C265.439 224.567 264.34 224.065 263.48 223.26L264.33 221.41C265.193 222.21 266.29 222.712 267.46 222.84L266.61 224.69Z" fill="url(#paint91_linear_781_911)"/>
<path d="M269.44 209.67C268.958 210.296 268.289 210.752 267.53 210.97L266.75 209.84C267.512 209.627 268.185 209.175 268.67 208.55L269.44 209.67Z" fill="url(#paint92_linear_781_911)"/>
<path d="M267.25 191.36C267.064 192.035 266.659 192.629 266.1 193.05L265.1 192.37C265.659 191.949 266.064 191.355 266.25 190.68L267.25 191.36Z" fill="url(#paint93_linear_781_911)"/>
<path d="M131.96 5.13998C131.985 6.30584 131.635 7.4489 130.96 8.39999L129.02 7.81C129.7 6.86149 130.051 5.71664 130.02 4.54999L131.96 5.13998Z" fill="url(#paint94_linear_781_911)"/>
<path d="M136.79 19.04C137.009 19.9194 136.935 20.8462 136.58 21.68L135.02 21.55C135.369 20.7183 135.443 19.7966 135.23 18.92L136.79 19.04Z" fill="url(#paint95_linear_781_911)"/>
<path d="M129.04 22.23C127.995 22.5763 126.865 22.5763 125.82 22.23V20.32C126.861 20.6728 127.989 20.6728 129.03 20.32L129.04 22.23Z" fill="url(#paint96_linear_781_911)"/>
<path d="M119.91 38.18C119.758 38.7935 119.406 39.339 118.91 39.73L117.99 39.17C118.465 38.769 118.798 38.2254 118.94 37.62L119.91 38.18Z" fill="url(#paint97_linear_781_911)"/>
<path d="M97.22 39.55C96.6473 39.24 96.191 38.7521 95.92 38.16L96.75 37.39C97.0184 37.9806 97.4711 38.4683 98.04 38.78L97.22 39.55Z" fill="url(#paint98_linear_781_911)"/>
<path d="M166.04 65.55C165.163 65.077 164.461 64.3335 164.04 63.43L165.33 62.28C165.751 63.1839 166.452 63.9276 167.33 64.4L166.04 65.55Z" fill="url(#paint99_linear_781_911)"/>
<path d="M142.72 57.46C142.723 58.4031 142.421 59.322 141.86 60.08L140.33 59.55C140.89 58.7921 141.189 57.8725 141.18 56.93L142.72 57.46Z" fill="url(#paint100_linear_781_911)"/>
<path d="M184.33 97.26C183.553 97.923 182.58 98.3129 181.56 98.37L180.9 96.73C181.92 96.6657 182.892 96.2728 183.67 95.61L184.33 97.26Z" fill="url(#paint101_linear_781_911)"/>
<path d="M174.83 82.55C173.917 83.3378 172.773 83.808 171.57 83.89L170.78 81.95C171.983 81.868 173.127 81.3978 174.04 80.61L174.83 82.55Z" fill="url(#paint102_linear_781_911)"/>
<path d="M173.98 75.55C173.201 75.1086 172.584 74.4285 172.22 73.61L173.38 72.61C173.737 73.4294 174.352 74.1103 175.13 74.55L173.98 75.55Z" fill="url(#paint103_linear_781_911)"/>
<path d="M177.75 63.13C176.666 63.0601 175.634 62.6388 174.81 61.93L175.52 60.18C176.36 60.901 177.415 61.323 178.52 61.38L177.75 63.13Z" fill="url(#paint104_linear_781_911)"/>
<path d="M227.33 158.38C226.315 157.83 225.505 156.967 225.02 155.92L226.48 154.55C226.967 155.599 227.781 156.462 228.8 157.01L227.33 158.38Z" fill="url(#paint105_linear_781_911)"/>
<path d="M243.33 144.23C242.499 144.291 241.671 144.08 240.97 143.63L241.33 142.23C242.031 142.68 242.859 142.891 243.69 142.83L243.33 144.23Z" fill="url(#paint106_linear_781_911)"/>
<path d="M261.33 155.64C261.164 156.885 260.599 158.043 259.72 158.94L257.72 157.99C258.599 157.093 259.164 155.935 259.33 154.69L261.33 155.64Z" fill="url(#paint107_linear_781_911)"/>
<path d="M286.41 152.67C285.93 153.399 285.229 153.957 284.41 154.26L283.47 153.03C284.31 152.741 285.033 152.186 285.53 151.45L286.41 152.67Z" fill="url(#paint108_linear_781_911)"/>
<path d="M293.78 172.06C292.743 172.79 291.498 173.166 290.23 173.13L289.6 171.03C290.865 171.066 292.107 170.691 293.14 169.96L293.78 172.06Z" fill="url(#paint109_linear_781_911)"/>
<path d="M307.68 176.55C306.805 176.651 305.92 176.465 305.16 176.02L305.48 174.52C306.24 174.967 307.124 175.156 308 175.06L307.68 176.55Z" fill="url(#paint110_linear_781_911)"/>
<path d="M225.15 16.19C224.493 16.9058 223.617 17.384 222.66 17.55L221.87 16.07C222.815 15.8991 223.678 15.4253 224.33 14.72L225.15 16.19Z" fill="url(#paint111_linear_781_911)"/>
<path d="M201.98 25.44C201.046 24.9651 200.292 24.2002 199.83 23.26L201.13 21.98C201.588 22.9223 202.338 23.6908 203.27 24.17L201.98 25.44Z" fill="url(#paint112_linear_781_911)"/>
<path d="M190.19 24.94C189.858 25.4931 189.356 25.9244 188.76 26.17L188.03 25.32C188.629 25.0782 189.131 24.6459 189.46 24.09L190.19 24.94Z" fill="url(#paint113_linear_781_911)"/>
<path d="M180.13 54.38C179.981 55.0142 179.63 55.5829 179.13 56L178.13 55.43C178.63 55.0129 178.981 54.4442 179.13 53.81L180.13 54.38Z" fill="url(#paint114_linear_781_911)"/>
<path d="M379.52 161.55C379.628 162.597 379.389 163.651 378.84 164.55L377.09 164.15C377.628 163.265 377.867 162.231 377.77 161.2L379.52 161.55Z" fill="url(#paint115_linear_781_911)"/>
<path d="M373.99 147.67C373.457 148.308 372.73 148.754 371.92 148.94L371.17 147.71C371.978 147.525 372.705 147.083 373.24 146.45L373.99 147.67Z" fill="url(#paint116_linear_781_911)"/>
<path d="M366.26 165.15C366.42 165.972 366.312 166.824 365.95 167.58L364.5 167.4C364.866 166.646 364.975 165.792 364.81 164.97L366.26 165.15Z" fill="url(#paint117_linear_781_911)"/>
<path d="M105.64 98.06C104.778 97.8693 103.999 97.4065 103.42 96.74L104.2 95.42C104.777 96.0899 105.556 96.5534 106.42 96.74L105.64 98.06Z" fill="url(#paint118_linear_781_911)"/>
<path d="M86.83 104.32C85.9219 104.224 85.0711 103.83 84.41 103.2L85.07 101.77C85.7337 102.394 86.5837 102.784 87.49 102.88L86.83 104.32Z" fill="url(#paint119_linear_781_911)"/>
<path d="M101.17 134.95C100.959 135.626 100.535 136.216 99.9599 136.63L98.9599 135.91C99.5298 135.493 99.9505 134.904 100.16 134.23L101.17 134.95Z" fill="url(#paint120_linear_781_911)"/>
<path d="M183.921 54.6549L185.771 54.6104L185.74 53.3607L183.891 53.4053L183.921 54.6549Z" fill="url(#paint121_linear_781_911)"/>
<path d="M185.79 54.45C185.189 54.6449 184.541 54.6449 183.94 54.45V53.35C184.54 53.5534 185.19 53.5534 185.79 53.35V54.45Z" fill="url(#paint122_linear_781_911)"/>
<path d="M196.583 32.812L198.944 32.6046L198.805 31.0207L196.444 31.2281L196.583 32.812Z" fill="url(#paint123_linear_781_911)"/>
<path d="M198.95 32.4C198.207 32.7232 197.379 32.7969 196.59 32.61L196.47 31.21C197.258 31.3971 198.085 31.327 198.83 31.01L198.95 32.4Z" fill="url(#paint124_linear_781_911)"/>
<path d="M173.752 29.3758L174.506 27.2029L173.042 26.6947L172.287 28.8676L173.752 29.3758Z" fill="url(#paint125_linear_781_911)"/>
<path d="M174.33 27.15C174.319 27.9367 174.053 28.6985 173.57 29.32L172.28 28.87C172.762 28.2485 173.029 27.4867 173.04 26.7L174.33 27.15Z" fill="url(#paint126_linear_781_911)"/>
<path d="M128.23 143.31C127.547 143.317 126.881 143.103 126.33 142.7L126.69 141.58C127.24 141.983 127.908 142.194 128.59 142.18L128.23 143.31Z" fill="url(#paint127_linear_781_911)"/>
<path d="M123.1 120.61C122.487 121.371 121.646 121.914 120.7 122.16L119.78 120.73C120.728 120.489 121.571 119.945 122.18 119.18L123.1 120.61Z" fill="url(#paint128_linear_781_911)"/>
<path d="M122.2 104.97C122.211 106.183 121.825 107.367 121.1 108.34L119.1 107.69C119.819 106.714 120.202 105.532 120.19 104.32L122.2 104.97Z" fill="url(#paint129_linear_781_911)"/>
<path d="M284.61 107.77C283.763 107.478 283.036 106.916 282.54 106.17L283.49 104.94C283.987 105.687 284.713 106.252 285.56 106.55L284.61 107.77Z" fill="url(#paint130_linear_781_911)"/>
<path d="M316.01 93.25C315.072 93.3989 314.111 93.2411 313.27 92.8L313.53 91.17C314.371 91.6111 315.332 91.7689 316.27 91.62L316.01 93.25Z" fill="url(#paint131_linear_781_911)"/>
<path d="M319.7 75.66C318.957 75.0892 318.42 74.2925 318.17 73.39L319.52 72.48C319.77 73.3825 320.307 74.1792 321.05 74.75L319.7 75.66Z" fill="url(#paint132_linear_781_911)"/>
<path d="M189.82 42.11C189.008 41.8242 188.308 41.2886 187.82 40.58L188.73 39.38C189.215 40.092 189.916 40.6286 190.73 40.91L189.82 42.11Z" fill="url(#paint133_linear_781_911)"/>
<path d="M168.9 46.9C168.243 47.1809 167.513 47.2405 166.82 47.07L166.72 45.84C167.413 46.0113 168.144 45.9516 168.8 45.67L168.9 46.9Z" fill="url(#paint134_linear_781_911)"/>
<path d="M153.63 31.05C152.87 31.42 152.011 31.5357 151.18 31.38L150.98 29.93C151.811 30.0857 152.67 29.97 153.43 29.6L153.63 31.05Z" fill="url(#paint135_linear_781_911)"/>
<path d="M248.86 149.98C247.954 150.28 246.976 150.28 246.07 149.98V148.32C246.975 148.626 247.955 148.626 248.86 148.32V149.98Z" fill="url(#paint136_linear_781_911)"/>
<path d="M239.09 162.1C238.296 161.805 237.619 161.262 237.16 160.55L238.09 159.41C238.545 160.127 239.223 160.675 240.02 160.97L239.09 162.1Z" fill="url(#paint137_linear_781_911)"/>
<path d="M228.85 179.37C228.598 180.177 228.088 180.879 227.4 181.37L226.22 180.5C226.915 180.014 227.429 179.31 227.68 178.5L228.85 179.37Z" fill="url(#paint138_linear_781_911)"/>
<path d="M221.91 177.55C222.059 178.534 221.887 179.541 221.42 180.42L219.72 180.14C220.187 179.261 220.356 178.253 220.2 177.27L221.91 177.55Z" fill="url(#paint139_linear_781_911)"/>
<path d="M76.33 211.67C77.47 199.74 70.8 188.59 57.72 189.78C47.84 190.68 37.41 192.11 33.55 202.85C33.94 201.78 41.37 203.19 41.8 202.02C43.1271 198.332 45.6149 195.174 48.89 193.02C50.5501 191.935 52.3589 191.096 54.26 190.53C56.1466 190.07 55.7866 190.07 53.18 190.53C54.4825 190.61 55.7712 190.841 57.02 191.22C66.11 193.64 68.87 204.37 68.09 212.51C68.14 212.04 76.28 212.27 76.33 211.68V211.67Z" fill="url(#paint140_linear_781_911)"/>
<path d="M33.5499 202.85C33.9399 201.78 41.3699 203.19 41.7999 202.02C43.127 198.332 45.6149 195.174 48.8899 193.02C50.4369 192.001 52.1203 191.207 53.8899 190.66C53.3499 190.57 52.7799 190.48 52.1599 190.4C44.1699 191.55 36.6899 194.12 33.5499 202.85Z" fill="url(#paint141_linear_781_911)"/>
<path d="M127.95 353.12C127.892 354.534 127.972 355.951 128.19 357.35C128.245 358.243 128.52 359.109 128.99 359.87C129.468 360.409 130.094 360.795 130.79 360.98C131.617 361.28 132.457 361.55 133.31 361.79C134.945 362.25 136.618 362.558 138.31 362.71C142.31 363.07 146.75 361.97 150.39 363.83C150.433 363.749 150.469 363.666 150.5 363.58C150.419 362.333 149.934 361.147 149.12 360.2C147.904 359.201 146.409 358.604 144.84 358.49C143.15 358.306 141.45 358.233 139.75 358.27C136.349 358.211 132.988 357.534 129.83 356.27C129.42 356.109 129.049 355.864 128.74 355.55C128.774 355.431 128.814 355.315 128.86 355.2C129.495 353.56 130.628 352.161 132.1 351.2C135.01 349.2 138.32 348.81 141.22 348.67C144.32 348.53 147.34 348.84 150.42 348.79C151.981 348.772 153.538 348.611 155.07 348.31C156.717 348.027 158.255 347.301 159.52 346.21C160.931 344.894 161.837 343.125 162.08 341.21C162.175 339.875 162.125 338.534 161.93 337.21C161.857 336.182 161.631 335.171 161.26 334.21C160.687 333.057 159.821 332.074 158.75 331.36C157.45 330.36 156.12 329.44 154.84 328.36C153.56 327.28 152.2 326.08 150.93 324.85C150.341 324.291 149.82 323.663 149.38 322.98L149.2 322.65C150.13 319.38 153.52 318.55 155.48 317.55C156.811 316.905 157.903 315.854 158.6 314.55C159.55 312.77 159.55 310.55 159.82 308.71C159.895 307.761 159.848 306.807 159.68 305.87C159.68 305.43 159.58 304.97 159.49 304.55C159.49 304.6 159.39 304.07 159.34 304.38C159.03 306.54 159.04 308.85 157.74 310.75C156.767 312.04 155.435 313.014 153.91 313.55C152.396 314.077 151.026 314.95 149.91 316.1C148.45 317.75 148.39 319.91 148.51 321.9C148.66 324.39 148.99 326.58 150.24 328.18C151.315 329.446 152.507 330.608 153.8 331.65C155.133 332.81 156.493 333.903 157.88 334.93C159.055 335.641 160.116 336.525 161.03 337.55C161.157 337.716 161.274 337.89 161.38 338.07C161.229 338.527 161.041 338.972 160.82 339.4C159.963 341.027 158.571 342.309 156.88 343.03C155.408 343.611 153.851 343.949 152.27 344.03C150.73 344.161 149.184 344.198 147.64 344.14C144.579 343.932 141.505 343.969 138.45 344.25C135.65 344.62 132.13 345.43 129.69 348.43C128.642 349.777 128.034 351.415 127.95 353.12Z" fill="url(#paint142_linear_781_911)"/>
<path d="M127.95 353.12C127.892 354.534 127.972 355.951 128.19 357.35L128.25 357.75C128.36 357.012 128.558 356.29 128.84 355.6L128.77 355.53C128.804 355.411 128.844 355.295 128.89 355.18C129.525 353.54 130.658 352.141 132.13 351.18C135.04 349.18 138.35 348.79 141.25 348.65C144.35 348.51 147.37 348.82 150.45 348.77C152.011 348.752 153.568 348.591 155.1 348.29C156.747 348.008 158.285 347.281 159.55 346.19C160.961 344.874 161.867 343.105 162.11 341.19C162.205 339.855 162.155 338.514 161.96 337.19C161.96 336.9 161.89 336.62 161.85 336.34C161.85 336.49 161.85 336.64 161.8 336.79C161.735 337.393 161.551 337.978 161.26 338.51C161.13 338.85 160.98 339.17 160.82 339.51C159.963 341.137 158.571 342.419 156.88 343.14C155.408 343.721 153.851 344.059 152.27 344.14C150.73 344.271 149.184 344.308 147.64 344.25C144.579 344.042 141.505 344.079 138.45 344.36C135.65 344.73 132.13 345.54 129.69 348.54C128.663 349.857 128.056 351.453 127.95 353.12Z" fill="url(#paint143_linear_781_911)"/>
<path d="M148.55 321.89C148.597 322.795 148.694 323.696 148.84 324.59L148.9 324.34C148.922 323.761 149.04 323.19 149.25 322.65C150.13 319.38 153.52 318.55 155.48 317.55C156.811 316.905 157.903 315.854 158.6 314.55C159.47 312.92 159.54 310.97 159.76 309.2C159.818 308.822 159.854 308.442 159.87 308.06C159.87 306.35 159.46 303.82 159.34 304.38C158.44 308.55 157.47 311.38 156.94 311.7C156.05 312.467 155.035 313.075 153.94 313.5C152.426 314.027 151.056 314.9 149.94 316.05C148.49 317.74 148.43 319.9 148.55 321.89Z" fill="url(#paint144_linear_781_911)"/>
<path d="M125.08 81.78C123.82 78.84 126.46 76.32 128.36 74.41C130.5 72.26 132.18 70.17 131.36 67.34C131.79 68.23 132.24 68.9 132.8 70.04C134.17 72.86 132.87 75.38 130.91 77.5C128.95 79.62 125.59 82.21 126.91 85.37C126.52 84.47 125.53 82.94 125.03 81.78H125.08Z" fill="url(#paint145_linear_781_911)"/>
<path d="M146.47 93.67C141.801 93.0077 137.215 91.8512 132.79 90.22C131.05 89.58 128.93 88.78 127.92 87.11C126.895 85.6352 126.05 84.0441 125.4 82.37C125.81 83.68 127.05 84.73 127.46 86.05C127.527 86.3169 127.624 86.5753 127.75 86.82L125.85 83.4L126.05 83.75L125.9 83.5C127.71 85.96 131.28 86.81 134.04 87.68C137.432 88.7313 140.903 89.5072 144.42 90C144.68 90 145.35 91.61 145.42 91.83C145.49 92.05 146.21 93.64 146.42 93.67H146.47Z" fill="url(#paint146_linear_781_911)"/>
<path d="M116.44 63.9C115.872 63.3351 115.5 62.6026 115.379 61.8105C115.259 61.0183 115.396 60.2084 115.77 59.5C116.62 57.66 117.27 56.08 116.11 54.18C116.82 55.35 118.24 56.09 118.95 57.27C119.363 57.9662 119.581 58.7606 119.581 59.57C119.581 60.3793 119.363 61.1738 118.95 61.87C118.16 63.46 117.69 64.87 118.78 66.47L118.6 66.25L118.87 66.56C119.39 67.14 118.41 66.1 118.34 66.02C117.68 65.32 117.03 64.62 116.39 63.9H116.44Z" fill="url(#paint147_linear_781_911)"/>
<path d="M132.16 68.9C131.855 68.4533 131.465 68.0714 131.012 67.7762C130.559 67.4811 130.052 67.2784 129.52 67.18C126.76 66.59 123.08 67.93 120.57 67.53C119.802 67.3546 119.081 67.0154 118.456 66.5356C117.831 66.0558 117.318 65.4467 116.95 64.75C116.633 64.3799 116.362 63.9737 116.14 63.54C116.01 63.35 115.88 63.15 115.76 62.95C116.859 63.6754 118.144 64.0678 119.46 64.08C121.55 64.18 123.85 63.57 125.9 63.56C126.683 63.5212 127.462 63.6761 128.171 64.011C128.879 64.346 129.494 64.8505 129.96 65.48L130.04 65.61C130.07 65.6442 130.097 65.681 130.12 65.72C130.957 66.7783 131.681 67.9211 132.28 69.13L132.16 68.9Z" fill="url(#paint148_linear_781_911)"/>
<path d="M19.9999 -4.11002C18.1999 -5.04002 16.1999 -4.67002 14.2899 -4.18003C11.7199 -3.54002 9.16993 -2.80003 6.61993 -2.09003C4.06993 -1.38003 1.49992 -0.680029 -1.08008 -0.0900288L-1.45008 -1.90735e-06C-0.660078 -0.730002 0.189932 -1.40001 1.02993 -2.07001C4.22241 -4.60796 7.27362 -7.31867 10.1699 -10.19C10.8799 -10.88 11.5699 -11.59 12.2499 -12.3C12.9 -12.8468 13.4223 -13.5295 13.7799 -14.3C13.8533 -14.6384 13.8074 -14.9917 13.6499 -15.3C13.1306 -16.4538 12.5081 -17.5583 11.7899 -18.6C11.3592 -19.3454 10.8161 -20.02 10.1799 -20.6C9.82376 -20.8108 9.41325 -20.9117 8.99993 -20.89C5.28498 -20.9214 1.57727 -20.556 -2.06009 -19.8C-4.3401 -19.4 -6.62007 -18.97 -8.91007 -18.63L-10.7301 -18.39C-9.65576 -19.688 -8.45298 -20.874 -7.14008 -21.93C-5.68969 -23.1013 -4.40466 -24.4637 -3.32007 -25.98C-3.10393 -26.2878 -2.95108 -26.6355 -2.8704 -27.0029C-2.78971 -27.3702 -2.7828 -27.75 -2.85007 -28.12C-3.11503 -28.9497 -3.50265 -29.7351 -4.00007 -30.45C-4.43007 -31.16 -4.86009 -31.87 -5.34009 -32.55C-5.61443 -33.0227 -5.95075 -33.4565 -6.34009 -33.84C-6.6306 -34.0348 -6.96105 -34.1619 -7.30717 -34.2121C-7.65328 -34.2623 -8.00624 -34.2342 -8.34009 -34.13C-9.3401 -33.96 -10.3901 -33.75 -11.4001 -33.49C-12.6459 -33.1625 -13.8714 -32.7618 -15.0701 -32.29C-14.5301 -33.29 -13.9401 -34.29 -13.4601 -35.29C-12.5392 -36.9977 -12.2895 -38.9878 -12.7601 -40.87C-13.2331 -42.1437 -13.8756 -43.3479 -14.6701 -44.45C-15.0138 -44.9906 -15.3878 -45.5114 -15.7901 -46.01C-15.7901 -46.01 -16.2901 -46.56 -16.1701 -46.17C-15.4101 -43.78 -16.5201 -41.38 -17.6701 -39.26C-18.3573 -38.1056 -18.9589 -36.9024 -19.4701 -35.66C-19.6899 -35.1034 -19.7943 -34.5079 -19.7771 -33.9098C-19.7599 -33.3116 -19.6215 -32.7231 -19.3701 -32.18C-19.3083 -31.9681 -19.2101 -31.7685 -19.0801 -31.59C-18.3505 -30.1317 -17.4797 -28.7484 -16.4801 -27.46C-16.1252 -26.9041 -15.6137 -26.4657 -15.0101 -26.2C-13.8001 -25.79 -12.3801 -26.71 -11.2401 -27.12L-10.7301 -27.3C-11.4601 -26.66 -12.1901 -26.02 -12.8801 -25.3C-14.0862 -24.1574 -15.0223 -22.7602 -15.6201 -21.21C-15.902 -20.5129 -15.9817 -19.7504 -15.8501 -19.01C-15.5756 -18.1761 -15.1851 -17.385 -14.6901 -16.66C-14.0717 -15.4162 -13.2731 -14.2705 -12.3201 -13.26C-12.0419 -13.0363 -11.7212 -12.8713 -11.3775 -12.7751C-11.0337 -12.6788 -10.674 -12.6533 -10.3201 -12.7C-9.37008 -12.7 -8.42007 -12.84 -7.47007 -12.95C-5.62007 -13.16 -3.78007 -13.47 -1.94007 -13.79C0.78993 -14.27 3.51991 -14.79 6.25991 -15.12C5.15991 -14.04 4.02993 -12.98 2.86993 -11.94C1.34326 -10.5667 -0.226761 -9.23334 -1.84009 -7.94C-3.21017 -6.88904 -4.51896 -5.76052 -5.76008 -4.56C-6.97812 -3.40961 -7.89499 -1.97768 -8.43009 -0.390017C-8.51852 -0.00633812 -8.47262 0.396079 -8.30009 0.749998C-7.77343 1.90522 -7.14776 3.01269 -6.43009 4.06C-5.75009 5.06 -5.12008 6.30998 -3.76008 6.44998C-2.88925 6.45486 -2.02165 6.3439 -1.18009 6.11999C-0.18009 5.93999 0.869907 5.72 1.87991 5.5C3.87991 5.06 5.77993 4.56 7.71993 4.03C10.5099 3.28 13.2899 2.47 16.0899 1.72C18.2799 1.14 21.0399 0.149977 23.1699 1.25998C23.4799 1.41998 23.2299 0.949984 23.1699 0.859983C22.9038 0.272799 22.6033 -0.298182 22.2699 -0.850008C21.8499 -1.56001 21.4099 -2.26 20.9399 -2.94C20.7199 -3.24 20.3299 -3.92002 19.9999 -4.11002Z" fill="url(#paint149_linear_781_911)"/>
<path d="M-1.39012 -0.0600119C-0.610119 -0.760012 0.209895 -1.42001 1.02989 -2.06001C4.22237 -4.59796 7.27358 -7.3087 10.1699 -10.18C10.8799 -10.87 11.5699 -11.58 12.2499 -12.29C12.9 -12.8368 13.4222 -13.5195 13.7799 -14.29C13.8533 -14.6284 13.8073 -14.9817 13.6499 -15.29C13.1306 -16.4438 12.508 -17.5483 11.7899 -18.59C11.3591 -19.3355 10.8161 -20.01 10.1799 -20.59L10.3899 -20.12C10.3899 -20.12 10.5299 -18.3 6.2499 -15.03C5.1499 -13.95 4.01988 -12.89 2.85988 -11.85C1.33321 -10.4767 -0.236776 -9.14335 -1.85011 -7.85002C-3.22018 -6.79905 -4.529 -5.67054 -5.77012 -4.47002C-6.98817 -3.31963 -7.90501 -1.8877 -8.44011 -0.300033C-8.48989 -0.0896034 -8.48989 0.129553 -8.44011 0.339982C-8.42011 0.439982 -7.75012 1.19999 -1.39012 -0.0600119Z" fill="url(#paint150_linear_781_911)"/>
<path d="M259.73 159.48C260.38 158.551 260.661 157.414 260.52 156.29C260.52 154.76 260.41 153.23 260.34 151.7C260.27 150.17 260.21 148.64 260.22 147.12V146.89C260.52 147.44 260.79 148 261.05 148.56C262.066 150.682 263.194 152.748 264.43 154.75C264.72 155.24 265.03 155.75 265.34 156.19C265.562 156.626 265.876 157.008 266.26 157.31C266.442 157.404 266.653 157.425 266.85 157.37C267.568 157.228 268.27 157.02 268.95 156.75C269.432 156.616 269.888 156.404 270.3 156.12C270.466 155.946 270.577 155.727 270.62 155.49C271.122 153.406 271.401 151.273 271.45 149.13C271.52 147.8 271.58 146.47 271.68 145.13C271.68 144.78 271.75 144.43 271.78 144.08C272.381 144.847 272.901 145.675 273.33 146.55C273.802 147.518 274.404 148.416 275.12 149.22C275.265 149.382 275.44 149.514 275.635 149.609C275.831 149.703 276.043 149.758 276.26 149.77C276.76 149.719 277.251 149.601 277.72 149.42C278.17 149.27 278.62 149.12 279.07 148.94C279.374 148.842 279.663 148.704 279.93 148.53C280.076 148.392 280.189 148.224 280.262 148.037C280.335 147.851 280.365 147.65 280.35 147.45C280.35 146.85 280.4 146.24 280.35 145.64C280.329 144.897 280.262 144.155 280.15 143.42C280.65 143.86 281.15 144.32 281.64 144.72C282.465 145.454 283.535 145.854 284.64 145.84C285.397 145.729 286.136 145.52 286.84 145.22C287.182 145.098 287.516 144.955 287.84 144.79C287.84 144.79 288.22 144.58 287.98 144.6C286.54 144.72 285.34 143.78 284.3 142.85C283.738 142.319 283.14 141.828 282.51 141.38C282.222 141.179 281.896 141.04 281.552 140.971C281.208 140.902 280.853 140.905 280.51 140.98C280.382 140.986 280.257 141.017 280.14 141.07C279.225 141.287 278.334 141.595 277.48 141.99C277.124 142.12 276.811 142.349 276.58 142.65C276.19 143.28 276.52 144.2 276.58 144.89V145.2C276.32 144.71 276.06 144.2 275.76 143.74C275.272 142.913 274.606 142.206 273.81 141.67C273.46 141.415 273.043 141.269 272.61 141.25C272.173 141.297 271.743 141.398 271.33 141.55C270.555 141.739 269.81 142.039 269.12 142.44C268.795 142.699 268.587 143.077 268.54 143.49C268.43 144.02 268.38 144.58 268.31 145.12C268.19 146.19 268.13 147.27 268.07 148.34C267.98 149.94 267.92 151.54 267.75 153.12C267.28 152.36 266.84 151.59 266.4 150.81C265.83 149.81 265.29 148.71 264.77 147.64C264.345 146.747 263.864 145.882 263.33 145.05C262.839 144.215 262.152 143.512 261.33 143C261.127 142.904 260.898 142.88 260.68 142.93C259.962 143.07 259.259 143.277 258.58 143.55C257.9 143.8 257.14 143.99 256.89 144.74C256.77 145.227 256.72 145.729 256.74 146.23C256.74 146.83 256.69 147.43 256.69 148.03C256.69 149.19 256.69 150.35 256.75 151.5C256.81 153.17 256.91 154.84 256.96 156.5C256.96 157.81 257.2 159.5 256.3 160.5C256.17 160.65 256.46 160.58 256.52 160.57C256.886 160.5 257.247 160.407 257.6 160.29C258.047 160.15 258.497 159.99 258.95 159.81C259.228 159.75 259.493 159.638 259.73 159.48Z" fill="url(#paint151_linear_781_911)"/>
<path d="M277.58 142L277.46 142.06C277.979 142.096 278.485 142.236 278.949 142.472C279.413 142.707 279.824 143.033 280.16 143.43C280.66 143.87 281.16 144.33 281.65 144.73C282.475 145.464 283.545 145.864 284.65 145.85C285.407 145.739 286.146 145.53 286.85 145.23C287.192 145.108 287.526 144.965 287.85 144.8C287.85 144.8 288.23 144.59 287.99 144.61C286.55 144.73 285.35 143.79 284.31 142.86C283.748 142.329 283.15 141.838 282.52 141.39C282.232 141.189 281.906 141.05 281.562 140.981C281.218 140.913 280.863 140.915 280.52 140.99C280.392 140.996 280.267 141.027 280.15 141.08C279.266 141.302 278.405 141.61 277.58 142Z" fill="url(#paint152_linear_781_911)"/>
<path d="M271.68 145.13C271.68 144.78 271.75 144.43 271.78 144.08C272.381 144.847 272.901 145.675 273.33 146.55C273.802 147.518 274.404 148.416 275.12 149.22C275.264 149.382 275.44 149.514 275.635 149.609C275.831 149.703 276.043 149.758 276.26 149.77C276.76 149.719 277.251 149.601 277.72 149.42C278.17 149.27 278.62 149.12 279.07 148.94C279.3 148.86 279.524 148.763 279.74 148.65C278.43 148.34 276.95 145.54 276.95 145.54L276.76 145.07C276.76 145.07 276.76 145.16 276.76 145.2C276.5 144.71 276.24 144.2 275.94 143.74C275.452 142.913 274.786 142.206 273.99 141.67C273.64 141.415 273.223 141.269 272.79 141.25C272.79 141.25 271.91 141.31 271.68 145.13Z" fill="url(#paint153_linear_781_911)"/>
<path d="M260.24 146.94C260.53 147.47 260.8 148.02 261.05 148.56C262.066 150.682 263.194 152.748 264.43 154.75C264.72 155.24 265.03 155.75 265.34 156.19C265.562 156.626 265.876 157.008 266.26 157.31C266.442 157.404 266.653 157.425 266.85 157.37C267.567 157.228 268.27 157.02 268.95 156.75C269.432 156.616 269.888 156.404 270.3 156.12L270.01 156.18C270.01 156.18 269.01 156.02 267.69 153.18C267.22 152.42 266.78 151.65 266.34 150.87C265.77 149.87 265.23 148.77 264.71 147.7C264.306 146.789 263.845 145.903 263.33 145.05C262.839 144.215 262.152 143.512 261.33 143C261.223 142.941 261.102 142.91 260.98 142.91C260.87 142.92 260.33 143.2 260.24 146.94Z" fill="url(#paint154_linear_781_911)"/>
</g>
</g>
<defs>
<linearGradient id="paint0_linear_781_911" x1="112.24" y1="56.68" x2="103.78" y2="56.68" gradientUnits="userSpaceOnUse">
<stop stop-color="#F8B54A"/>
<stop offset="1" stop-color="#F8A629"/>
</linearGradient>
<linearGradient id="paint1_linear_781_911" x1="151.84" y1="3.43999" x2="142.87" y2="3.43999" gradientUnits="userSpaceOnUse">
<stop stop-color="#B5188D"/>
<stop offset="1" stop-color="#4E69AE"/>
</linearGradient>
<linearGradient id="paint2_linear_781_911" x1="222.39" y1="10.13" x2="208.46" y2="10.13" gradientUnits="userSpaceOnUse">
<stop stop-color="#F44274"/>
<stop offset="1" stop-color="#E51F9A"/>
</linearGradient>
<linearGradient id="paint3_linear_781_911" x1="245.713" y1="47.1343" x2="238.997" y2="33.89" gradientUnits="userSpaceOnUse">
<stop stop-color="#6DD0E7"/>
<stop offset="1" stop-color="#01A7DB"/>
</linearGradient>
<linearGradient id="paint4_linear_781_911" x1="285.11" y1="37.24" x2="272.16" y2="37.24" gradientUnits="userSpaceOnUse">
<stop stop-color="#F71873"/>
<stop offset="1" stop-color="#F8A629"/>
</linearGradient>
<linearGradient id="paint5_linear_781_911" x1="369.551" y1="83.935" x2="363.174" y2="99.9198" gradientUnits="userSpaceOnUse">
<stop stop-color="#F44274"/>
<stop offset="1" stop-color="#E51F9A"/>
</linearGradient>
<linearGradient id="paint6_linear_781_911" x1="297.23" y1="9.65999" x2="261.75" y2="9.65999" gradientUnits="userSpaceOnUse">
<stop stop-color="#F44274"/>
<stop offset="1" stop-color="#E51F9A"/>
</linearGradient>
<linearGradient id="paint7_linear_781_911" x1="313.71" y1="133.22" x2="293.78" y2="133.22" gradientUnits="userSpaceOnUse">
<stop stop-color="#B4DF86"/>
<stop offset="1" stop-color="#84C743"/>
</linearGradient>
<linearGradient id="paint8_linear_781_911" x1="232.28" y1="137.45" x2="222.79" y2="137.45" gradientUnits="userSpaceOnUse">
<stop stop-color="#F44274"/>
<stop offset="1" stop-color="#E51F9A"/>
</linearGradient>
<linearGradient id="paint9_linear_781_911" x1="159.99" y1="66.39" x2="153.78" y2="66.39" gradientUnits="userSpaceOnUse">
<stop stop-color="#B5188D"/>
<stop offset="1" stop-color="#4E69AE"/>
</linearGradient>
<linearGradient id="paint10_linear_781_911" x1="152.72" y1="117.2" x2="135.5" y2="117.2" gradientUnits="userSpaceOnUse">
<stop stop-color="#6DD0E7"/>
<stop offset="1" stop-color="#01A7DB"/>
</linearGradient>
<linearGradient id="paint11_linear_781_911" x1="115.05" y1="173.08" x2="100.63" y2="173.08" gradientUnits="userSpaceOnUse">
<stop stop-color="#B4DF86"/>
<stop offset="1" stop-color="#84C743"/>
</linearGradient>
<linearGradient id="paint12_linear_781_911" x1="33.73" y1="120.66" x2="25.5" y2="120.66" gradientUnits="userSpaceOnUse">
<stop stop-color="#BE1E68"/>
<stop offset="1" stop-color="#B5188D"/>
</linearGradient>
<linearGradient id="paint13_linear_781_911" x1="264.81" y1="74.96" x2="248.8" y2="74.96" gradientUnits="userSpaceOnUse">
<stop stop-color="#F44274"/>
<stop offset="1" stop-color="#E51F9A"/>
</linearGradient>
<linearGradient id="paint14_linear_781_911" x1="187.96" y1="140.82" x2="175.18" y2="140.82" gradientUnits="userSpaceOnUse">
<stop stop-color="#6DD0E7"/>
<stop offset="1" stop-color="#01A7DB"/>
</linearGradient>
<linearGradient id="paint15_linear_781_911" x1="119.09" y1="128.15" x2="108.62" y2="128.15" gradientUnits="userSpaceOnUse">
<stop stop-color="#BE1E68"/>
<stop offset="1" stop-color="#B5188D"/>
</linearGradient>
<linearGradient id="paint16_linear_781_911" x1="13.27" y1="166.29" x2="0.51001" y2="166.29" gradientUnits="userSpaceOnUse">
<stop stop-color="#B5188D"/>
<stop offset="1" stop-color="#4E69AE"/>
</linearGradient>
<linearGradient id="paint17_linear_781_911" x1="291.66" y1="92.78" x2="277.36" y2="92.78" gradientUnits="userSpaceOnUse">
<stop stop-color="#B5188D"/>
<stop offset="1" stop-color="#4E69AE"/>
</linearGradient>
<linearGradient id="paint18_linear_781_911" x1="232.87" y1="97.6" x2="216.51" y2="97.6" gradientUnits="userSpaceOnUse">
<stop stop-color="#F8B54A"/>
<stop offset="1" stop-color="#F8A629"/>
</linearGradient>
<linearGradient id="paint19_linear_781_911" x1="220.12" y1="119.78" x2="206.35" y2="119.78" gradientUnits="userSpaceOnUse">
<stop stop-color="#B4DF86"/>
<stop offset="1" stop-color="#84C743"/>
</linearGradient>
<linearGradient id="paint20_linear_781_911" x1="104.27" y1="152.15" x2="86.56" y2="152.15" gradientUnits="userSpaceOnUse">
<stop stop-color="#F8B54A"/>
<stop offset="1" stop-color="#F8A629"/>
</linearGradient>
<linearGradient id="paint21_linear_781_911" x1="74.49" y1="271.53" x2="63.89" y2="271.53" gradientUnits="userSpaceOnUse">
<stop stop-color="#6DD0E7"/>
<stop offset="1" stop-color="#01A7DB"/>
</linearGradient>
<linearGradient id="paint22_linear_781_911" x1="119.91" y1="316" x2="107.8" y2="316" gradientUnits="userSpaceOnUse">
<stop stop-color="#BE1E68"/>
<stop offset="1" stop-color="#B5188D"/>
</linearGradient>
<linearGradient id="paint23_linear_781_911" x1="235.17" y1="4.03999" x2="224.76" y2="4.03999" gradientUnits="userSpaceOnUse">
<stop stop-color="#F8B54A"/>
<stop offset="1" stop-color="#F8A629"/>
</linearGradient>
<linearGradient id="paint24_linear_781_911" x1="208.5" y1="74.96" x2="198.52" y2="74.96" gradientUnits="userSpaceOnUse">
<stop stop-color="#BE1E68"/>
<stop offset="1" stop-color="#B5188D"/>
</linearGradient>
<linearGradient id="paint25_linear_781_911" x1="321.05" y1="71.76" x2="305.03" y2="71.76" gradientUnits="userSpaceOnUse">
<stop stop-color="#6DD0E7"/>
<stop offset="1" stop-color="#01A7DB"/>
</linearGradient>
<linearGradient id="paint26_linear_781_911" x1="324.43" y1="9.65999" x2="313.04" y2="9.65999" gradientUnits="userSpaceOnUse">
<stop stop-color="#F44274"/>
<stop offset="1" stop-color="#E51F9A"/>
</linearGradient>
<linearGradient id="paint27_linear_781_911" x1="360.26" y1="21.92" x2="344.6" y2="21.92" gradientUnits="userSpaceOnUse">
<stop stop-color="#B5188D"/>
<stop offset="1" stop-color="#4E69AE"/>
</linearGradient>
<linearGradient id="paint28_linear_781_911" x1="334.86" y1="190.39" x2="324.34" y2="190.39" gradientUnits="userSpaceOnUse">
<stop stop-color="#BE1E68"/>
<stop offset="1" stop-color="#B5188D"/>
</linearGradient>
<linearGradient id="paint29_linear_781_911" x1="203.23" y1="94.63" x2="190.11" y2="94.63" gradientUnits="userSpaceOnUse">
<stop stop-color="#F71873"/>
<stop offset="1" stop-color="#F8A629"/>
</linearGradient>
<linearGradient id="paint30_linear_781_911" x1="213.59" y1="165.42" x2="203.06" y2="165.42" gradientUnits="userSpaceOnUse">
<stop stop-color="#FBE422"/>
<stop offset="1" stop-color="#C8D92B"/>
</linearGradient>
<linearGradient id="paint31_linear_781_911" x1="191.92" y1="197.77" x2="182.65" y2="197.77" gradientUnits="userSpaceOnUse">
<stop stop-color="#BE1E68"/>
<stop offset="1" stop-color="#B5188D"/>
</linearGradient>
<linearGradient id="paint32_linear_781_911" x1="169.99" y1="238.98" x2="154.21" y2="238.98" gradientUnits="userSpaceOnUse">
<stop stop-color="#6DD0E7"/>
<stop offset="1" stop-color="#01A7DB"/>
</linearGradient>
<linearGradient id="paint33_linear_781_911" x1="279.02" y1="115.4" x2="266.87" y2="115.4" gradientUnits="userSpaceOnUse">
<stop stop-color="#FBE422"/>
<stop offset="1" stop-color="#C8D92B"/>
</linearGradient>
<linearGradient id="paint34_linear_781_911" x1="196.05" y1="136.13" x2="184.35" y2="136.13" gradientUnits="userSpaceOnUse">
<stop stop-color="#BE1E68"/>
<stop offset="1" stop-color="#B5188D"/>
</linearGradient>
<linearGradient id="paint35_linear_781_911" x1="159.9" y1="52.66" x2="142.1" y2="52.66" gradientUnits="userSpaceOnUse">
<stop stop-color="#B4DF86"/>
<stop offset="1" stop-color="#84C743"/>
</linearGradient>
<linearGradient id="paint36_linear_781_911" x1="54.21" y1="19.69" x2="42.27" y2="19.69" gradientUnits="userSpaceOnUse">
<stop stop-color="#B5188D"/>
<stop offset="1" stop-color="#4E69AE"/>
</linearGradient>
<linearGradient id="paint37_linear_781_911" x1="28.3401" y1="260.7" x2="16.2701" y2="260.7" gradientUnits="userSpaceOnUse">
<stop stop-color="#FBE422"/>
<stop offset="1" stop-color="#C8D92B"/>
</linearGradient>
<linearGradient id="paint38_linear_781_911" x1="124.71" y1="273.93" x2="113.47" y2="273.93" gradientUnits="userSpaceOnUse">
<stop stop-color="#F71873"/>
<stop offset="1" stop-color="#C6211B"/>
</linearGradient>
<linearGradient id="paint39_linear_781_911" x1="172.91" y1="292" x2="164.09" y2="292" gradientUnits="userSpaceOnUse">
<stop stop-color="#F71873"/>
<stop offset="1" stop-color="#F8A629"/>
</linearGradient>
<linearGradient id="paint40_linear_781_911" x1="266.51" y1="198.91" x2="257.28" y2="198.91" gradientUnits="userSpaceOnUse">
<stop stop-color="#6DD0E7"/>
<stop offset="1" stop-color="#01A7DB"/>
</linearGradient>
<linearGradient id="paint41_linear_781_911" x1="18.76" y1="196.61" x2="6.85001" y2="196.61" gradientUnits="userSpaceOnUse">
<stop stop-color="#6DD0E7"/>
<stop offset="1" stop-color="#01A7DB"/>
</linearGradient>
<linearGradient id="paint42_linear_781_911" x1="134.61" y1="171.55" x2="120.3" y2="171.55" gradientUnits="userSpaceOnUse">
<stop stop-color="#F71873"/>
<stop offset="1" stop-color="#F8A629"/>
</linearGradient>
<linearGradient id="paint43_linear_781_911" x1="24.8045" y1="350.135" x2="14.7113" y2="342.112" gradientUnits="userSpaceOnUse">
<stop stop-color="#F71873"/>
<stop offset="1" stop-color="#F8A629"/>
</linearGradient>
<linearGradient id="paint44_linear_781_911" x1="126.29" y1="229.26" x2="115.62" y2="229.26" gradientUnits="userSpaceOnUse">
<stop stop-color="#F8B54A"/>
<stop offset="1" stop-color="#F8A629"/>
</linearGradient>
<linearGradient id="paint45_linear_781_911" x1="188.39" y1="173.24" x2="177.57" y2="173.24" gradientUnits="userSpaceOnUse">
<stop stop-color="#F71873"/>
<stop offset="1" stop-color="#C6211B"/>
</linearGradient>
<linearGradient id="paint46_linear_781_911" x1="97.9399" y1="-6.42001" x2="83.6299" y2="-6.42001" gradientUnits="userSpaceOnUse">
<stop stop-color="#F71873"/>
<stop offset="1" stop-color="#F8A629"/>
</linearGradient>
<linearGradient id="paint47_linear_781_911" x1="236.204" y1="275.192" x2="233.797" y2="283.16" gradientUnits="userSpaceOnUse">
<stop stop-color="#F8B54A"/>
<stop offset="1" stop-color="#F8A629"/>
</linearGradient>
<linearGradient id="paint48_linear_781_911" x1="229.207" y1="212.101" x2="221.806" y2="210.462" gradientUnits="userSpaceOnUse">
<stop stop-color="#F71873"/>
<stop offset="1" stop-color="#F8A629"/>
</linearGradient>
<linearGradient id="paint49_linear_781_911" x1="299.61" y1="197.27" x2="289.52" y2="197.27" gradientUnits="userSpaceOnUse">
<stop stop-color="#BE1E68"/>
<stop offset="1" stop-color="#B5188D"/>
</linearGradient>
<linearGradient id="paint50_linear_781_911" x1="243.446" y1="191.621" x2="234.186" y2="191.621" gradientUnits="userSpaceOnUse">
<stop stop-color="#F71873"/>
<stop offset="1" stop-color="#F8A629"/>
</linearGradient>
<linearGradient id="paint51_linear_781_911" x1="243.17" y1="191.9" x2="234.18" y2="191.9" gradientUnits="userSpaceOnUse">
<stop stop-color="#F71873"/>
<stop offset="1" stop-color="#F8A629"/>
</linearGradient>
<linearGradient id="paint52_linear_781_911" x1="154.764" y1="250.388" x2="143.044" y2="250.388" gradientUnits="userSpaceOnUse">
<stop stop-color="#F8B54A"/>
<stop offset="1" stop-color="#F8A629"/>
</linearGradient>
<linearGradient id="paint53_linear_781_911" x1="154.47" y1="250.76" x2="143.04" y2="250.76" gradientUnits="userSpaceOnUse">
<stop stop-color="#F8B54A"/>
<stop offset="1" stop-color="#F8A629"/>
</linearGradient>
<linearGradient id="paint54_linear_781_911" x1="399.76" y1="126.66" x2="387.05" y2="126.66" gradientUnits="userSpaceOnUse">
<stop stop-color="#6DD0E7"/>
<stop offset="1" stop-color="#01A7DB"/>
</linearGradient>
<linearGradient id="paint55_linear_781_911" x1="263.011" y1="262.423" x2="249.916" y2="259.048" gradientUnits="userSpaceOnUse">
<stop stop-color="#F71873"/>
<stop offset="1" stop-color="#F8A629"/>
</linearGradient>
<linearGradient id="paint56_linear_781_911" x1="207.908" y1="296.654" x2="199.566" y2="294.504" gradientUnits="userSpaceOnUse">
<stop stop-color="#B4DF86"/>
<stop offset="1" stop-color="#84C743"/>
</linearGradient>
<linearGradient id="paint57_linear_781_911" x1="202.48" y1="233.08" x2="192.1" y2="233.08" gradientUnits="userSpaceOnUse">
<stop stop-color="#B4DF86"/>
<stop offset="1" stop-color="#84C743"/>
</linearGradient>
<linearGradient id="paint58_linear_781_911" x1="328.64" y1="260.98" x2="316.83" y2="260.98" gradientUnits="userSpaceOnUse">
<stop stop-color="#FBE422"/>
<stop offset="1" stop-color="#C8D92B"/>
</linearGradient>
<linearGradient id="paint59_linear_781_911" x1="104.008" y1="286.477" x2="75.5195" y2="326.655" gradientUnits="userSpaceOnUse">
<stop stop-color="#B4DF86"/>
<stop offset="1" stop-color="#84C743"/>
</linearGradient>
<linearGradient id="paint60_linear_781_911" x1="410.444" y1="23.1142" x2="392.794" y2="69.0959" gradientUnits="userSpaceOnUse">
<stop stop-color="#F71873"/>
<stop offset="1" stop-color="#C6211B"/>
</linearGradient>
<linearGradient id="paint61_linear_781_911" x1="145.23" y1="143.44" x2="132.14" y2="143.44" gradientUnits="userSpaceOnUse">
<stop stop-color="#F71873"/>
<stop offset="1" stop-color="#C6211B"/>
</linearGradient>
<linearGradient id="paint62_linear_781_911" x1="208.152" y1="262.361" x2="185.586" y2="247.916" gradientUnits="userSpaceOnUse">
<stop stop-color="#F71873"/>
<stop offset="1" stop-color="#F8A629"/>
</linearGradient>
<linearGradient id="paint63_linear_781_911" x1="45.2708" y1="53.8063" x2="71.531" y2="35.0027" gradientUnits="userSpaceOnUse">
<stop stop-color="#FBE422"/>
<stop offset="1" stop-color="#C8D92B"/>
</linearGradient>
<linearGradient id="paint64_linear_781_911" x1="369.45" y1="229.318" x2="382.779" y2="247.246" gradientUnits="userSpaceOnUse">
<stop stop-color="#BE1E68"/>
<stop offset="1" stop-color="#B5188D"/>
</linearGradient>
<linearGradient id="paint65_linear_781_911" x1="47.93" y1="92.91" x2="47.93" y2="120.2" gradientUnits="userSpaceOnUse">
<stop stop-color="#B5188D"/>
<stop offset="1" stop-color="#4E69AE"/>
</linearGradient>
<linearGradient id="paint66_linear_781_911" x1="300.174" y1="213.784" x2="270.437" y2="238.501" gradientUnits="userSpaceOnUse">
<stop stop-color="#F71873"/>
<stop offset="1" stop-color="#C6211B"/>
</linearGradient>
<linearGradient id="paint67_linear_781_911" x1="342.428" y1="44.7628" x2="344.225" y2="43.8622" gradientUnits="userSpaceOnUse">
<stop stop-color="#F8B54A"/>
<stop offset="1" stop-color="#F8A629"/>
</linearGradient>
<linearGradient id="paint68_linear_781_911" x1="339.675" y1="60.3151" x2="341.588" y2="59.3562" gradientUnits="userSpaceOnUse">
<stop stop-color="#B5188D"/>
<stop offset="1" stop-color="#4E69AE"/>
</linearGradient>
<linearGradient id="paint69_linear_781_911" x1="323.948" y1="66.4078" x2="326.916" y2="64.9202" gradientUnits="userSpaceOnUse">
<stop stop-color="#F44274"/>
<stop offset="1" stop-color="#E51F9A"/>
</linearGradient>
<linearGradient id="paint70_linear_781_911" x1="312.74" y1="61.5219" x2="315.963" y2="63.9072" gradientUnits="userSpaceOnUse">
<stop stop-color="#6DD0E7"/>
<stop offset="1" stop-color="#01A7DB"/>
</linearGradient>
<linearGradient id="paint71_linear_781_911" x1="307.71" y1="67.3312" x2="310.464" y2="65.9511" gradientUnits="userSpaceOnUse">
<stop stop-color="#F71873"/>
<stop offset="1" stop-color="#F8A629"/>
</linearGradient>
<linearGradient id="paint72_linear_781_911" x1="289.011" y1="70.417" x2="291.237" y2="69.3013" gradientUnits="userSpaceOnUse">
<stop stop-color="#F44274"/>
<stop offset="1" stop-color="#E51F9A"/>
</linearGradient>
<linearGradient id="paint73_linear_781_911" x1="267.966" y1="52.7767" x2="271.095" y2="51.2085" gradientUnits="userSpaceOnUse">
<stop stop-color="#BE1E68"/>
<stop offset="1" stop-color="#B5188D"/>
</linearGradient>
<linearGradient id="paint74_linear_781_911" x1="255.378" y1="40.3384" x2="258.096" y2="38.9763" gradientUnits="userSpaceOnUse">
<stop stop-color="#FBE422"/>
<stop offset="1" stop-color="#C8D92B"/>
</linearGradient>
<linearGradient id="paint75_linear_781_911" x1="27.0525" y1="85.305" x2="29.4068" y2="82.367" gradientUnits="userSpaceOnUse">
<stop stop-color="#F44274"/>
<stop offset="1" stop-color="#E51F9A"/>
</linearGradient>
<linearGradient id="paint76_linear_781_911" x1="42.6881" y1="102.104" x2="45.0128" y2="99.2255" gradientUnits="userSpaceOnUse">
<stop stop-color="#F44274"/>
<stop offset="1" stop-color="#E51F9A"/>
</linearGradient>
<linearGradient id="paint77_linear_781_911" x1="19.0762" y1="84.36" x2="21.6781" y2="81.1386" gradientUnits="userSpaceOnUse">
<stop stop-color="#B4DF86"/>
<stop offset="1" stop-color="#84C743"/>
</linearGradient>
<linearGradient id="paint78_linear_781_911" x1="31.0437" y1="69.0483" x2="32.4675" y2="67.2855" gradientUnits="userSpaceOnUse">
<stop stop-color="#F44274"/>
<stop offset="1" stop-color="#E51F9A"/>
</linearGradient>
<linearGradient id="paint79_linear_781_911" x1="55.0757" y1="66.2776" x2="56.0081" y2="65.1232" gradientUnits="userSpaceOnUse">
<stop stop-color="#B5188D"/>
<stop offset="1" stop-color="#4E69AE"/>
</linearGradient>
<linearGradient id="paint80_linear_781_911" x1="46.7355" y1="57.3116" x2="49.3185" y2="54.1136" gradientUnits="userSpaceOnUse">
<stop stop-color="#6DD0E7"/>
<stop offset="1" stop-color="#01A7DB"/>
</linearGradient>
<linearGradient id="paint81_linear_781_911" x1="42.0062" y1="41.9438" x2="44.1671" y2="39.2684" gradientUnits="userSpaceOnUse">
<stop stop-color="#B4DF86"/>
<stop offset="1" stop-color="#84C743"/>
</linearGradient>
<linearGradient id="paint82_linear_781_911" x1="63.9298" y1="34.6992" x2="65.1646" y2="33.1704" gradientUnits="userSpaceOnUse">
<stop stop-color="#BE1E68"/>
<stop offset="1" stop-color="#B5188D"/>
</linearGradient>
<linearGradient id="paint83_linear_781_911" x1="198.814" y1="1.82044" x2="202.22" y2="0.113291" gradientUnits="userSpaceOnUse">
<stop stop-color="#F44274"/>
<stop offset="1" stop-color="#E51F9A"/>
</linearGradient>
<linearGradient id="paint84_linear_781_911" x1="129.036" y1="236.357" x2="132.085" y2="234.829" gradientUnits="userSpaceOnUse">
<stop stop-color="#B5188D"/>
<stop offset="1" stop-color="#4E69AE"/>
</linearGradient>
<linearGradient id="paint85_linear_781_911" x1="141.028" y1="229.06" x2="144.515" y2="227.313" gradientUnits="userSpaceOnUse">
<stop stop-color="#F8B54A"/>
<stop offset="1" stop-color="#F8A629"/>
</linearGradient>
<linearGradient id="paint86_linear_781_911" x1="141.38" y1="222.978" x2="144.312" y2="221.508" gradientUnits="userSpaceOnUse">
<stop stop-color="#B4DF86"/>
<stop offset="1" stop-color="#84C743"/>
</linearGradient>
<linearGradient id="paint87_linear_781_911" x1="162.577" y1="203.741" x2="166.35" y2="201.85" gradientUnits="userSpaceOnUse">
<stop stop-color="#F8B54A"/>
<stop offset="1" stop-color="#F8A629"/>
</linearGradient>
<linearGradient id="paint88_linear_781_911" x1="156.181" y1="175.157" x2="158.434" y2="174.028" gradientUnits="userSpaceOnUse">
<stop stop-color="#6DD0E7"/>
<stop offset="1" stop-color="#01A7DB"/>
</linearGradient>
<linearGradient id="paint89_linear_781_911" x1="141.777" y1="170.542" x2="144.351" y2="169.251" gradientUnits="userSpaceOnUse">
<stop stop-color="#BE1E68"/>
<stop offset="1" stop-color="#B5188D"/>
</linearGradient>
<linearGradient id="paint90_linear_781_911" x1="239.67" y1="234.543" x2="243.363" y2="232.692" gradientUnits="userSpaceOnUse">
<stop stop-color="#B4DF86"/>
<stop offset="1" stop-color="#84C743"/>
</linearGradient>
<linearGradient id="paint91_linear_781_911" x1="264.015" y1="223.527" x2="267.368" y2="221.846" gradientUnits="userSpaceOnUse">
<stop stop-color="#FBE422"/>
<stop offset="1" stop-color="#C8D92B"/>
</linearGradient>
<linearGradient id="paint92_linear_781_911" x1="267.236" y1="209.978" x2="269.444" y2="208.871" gradientUnits="userSpaceOnUse">
<stop stop-color="#F8B54A"/>
<stop offset="1" stop-color="#F8A629"/>
</linearGradient>
<linearGradient id="paint93_linear_781_911" x1="265.336" y1="192.037" x2="267.463" y2="190.971" gradientUnits="userSpaceOnUse">
<stop stop-color="#BE1E68"/>
<stop offset="1" stop-color="#B5188D"/>
</linearGradient>
<linearGradient id="paint94_linear_781_911" x1="128.99" y1="6.97222" x2="132.406" y2="5.26059" gradientUnits="userSpaceOnUse">
<stop stop-color="#6DD0E7"/>
<stop offset="1" stop-color="#01A7DB"/>
</linearGradient>
<linearGradient id="paint95_linear_781_911" x1="134.898" y1="20.544" x2="137.321" y2="19.3297" gradientUnits="userSpaceOnUse">
<stop stop-color="#F44274"/>
<stop offset="1" stop-color="#E51F9A"/>
</linearGradient>
<linearGradient id="paint96_linear_781_911" x1="125.968" y1="21.7645" x2="129.303" y2="20.0932" gradientUnits="userSpaceOnUse">
<stop stop-color="#B5188D"/>
<stop offset="1" stop-color="#4E69AE"/>
</linearGradient>
<linearGradient id="paint97_linear_781_911" x1="118.239" y1="38.7928" x2="120.134" y2="37.8429" gradientUnits="userSpaceOnUse">
<stop stop-color="#BE1E68"/>
<stop offset="1" stop-color="#B5188D"/>
</linearGradient>
<linearGradient id="paint98_linear_781_911" x1="96.4592" y1="38.5007" x2="97.9164" y2="37.7703" gradientUnits="userSpaceOnUse">
<stop stop-color="#F8B54A"/>
<stop offset="1" stop-color="#F8A629"/>
</linearGradient>
<linearGradient id="paint99_linear_781_911" x1="164.76" y1="64.1455" x2="166.995" y2="63.0253" gradientUnits="userSpaceOnUse">
<stop stop-color="#BE1E68"/>
<stop offset="1" stop-color="#B5188D"/>
</linearGradient>
<linearGradient id="paint100_linear_781_911" x1="140.341" y1="58.856" x2="143.113" y2="57.467" gradientUnits="userSpaceOnUse">
<stop stop-color="#6DD0E7"/>
<stop offset="1" stop-color="#01A7DB"/>
</linearGradient>
<linearGradient id="paint101_linear_781_911" x1="181.491" y1="97.3932" x2="184.289" y2="95.9908" gradientUnits="userSpaceOnUse">
<stop stop-color="#F71873"/>
<stop offset="1" stop-color="#F8A629"/>
</linearGradient>
<linearGradient id="paint102_linear_781_911" x1="171.414" y1="82.779" x2="174.704" y2="81.1301" gradientUnits="userSpaceOnUse">
<stop stop-color="#FBE422"/>
<stop offset="1" stop-color="#C8D92B"/>
</linearGradient>
<linearGradient id="paint103_linear_781_911" x1="172.895" y1="74.2403" x2="174.871" y2="73.25" gradientUnits="userSpaceOnUse">
<stop stop-color="#BE1E68"/>
<stop offset="1" stop-color="#B5188D"/>
</linearGradient>
<linearGradient id="paint104_linear_781_911" x1="175.281" y1="62.0827" x2="178.419" y2="60.51" gradientUnits="userSpaceOnUse">
<stop stop-color="#6DD0E7"/>
<stop offset="1" stop-color="#01A7DB"/>
</linearGradient>
<linearGradient id="paint105_linear_781_911" x1="225.831" y1="156.759" x2="228.423" y2="155.459" gradientUnits="userSpaceOnUse">
<stop stop-color="#FBE422"/>
<stop offset="1" stop-color="#C8D92B"/>
</linearGradient>
<linearGradient id="paint106_linear_781_911" x1="241.278" y1="143.502" x2="243.763" y2="142.256" gradientUnits="userSpaceOnUse">
<stop stop-color="#BE1E68"/>
<stop offset="1" stop-color="#B5188D"/>
</linearGradient>
<linearGradient id="paint107_linear_781_911" x1="257.865" y1="157.403" x2="261.656" y2="155.503" gradientUnits="userSpaceOnUse">
<stop stop-color="#B4DF86"/>
<stop offset="1" stop-color="#84C743"/>
</linearGradient>
<linearGradient id="paint108_linear_781_911" x1="283.876" y1="153.148" x2="286.415" y2="151.875" gradientUnits="userSpaceOnUse">
<stop stop-color="#B5188D"/>
<stop offset="1" stop-color="#4E69AE"/>
</linearGradient>
<linearGradient id="paint109_linear_781_911" x1="290.124" y1="172.108" x2="293.726" y2="170.302" gradientUnits="userSpaceOnUse">
<stop stop-color="#6DD0E7"/>
<stop offset="1" stop-color="#01A7DB"/>
</linearGradient>
<linearGradient id="paint110_linear_781_911" x1="305.475" y1="175.801" x2="308.131" y2="174.47" gradientUnits="userSpaceOnUse">
<stop stop-color="#F71873"/>
<stop offset="1" stop-color="#F8A629"/>
</linearGradient>
<linearGradient id="paint111_linear_781_911" x1="222.485" y1="16.4887" x2="225.051" y2="15.2027" gradientUnits="userSpaceOnUse">
<stop stop-color="#FBE422"/>
<stop offset="1" stop-color="#C8D92B"/>
</linearGradient>
<linearGradient id="paint112_linear_781_911" x1="200.566" y1="23.9514" x2="202.953" y2="22.755" gradientUnits="userSpaceOnUse">
<stop stop-color="#F71873"/>
<stop offset="1" stop-color="#C6211B"/>
</linearGradient>
<linearGradient id="paint113_linear_781_911" x1="188.376" y1="25.251" x2="190.262" y2="24.3056" gradientUnits="userSpaceOnUse">
<stop stop-color="#F71873"/>
<stop offset="1" stop-color="#F8A629"/>
</linearGradient>
<linearGradient id="paint114_linear_781_911" x1="178.396" y1="55.0406" x2="180.353" y2="54.0593" gradientUnits="userSpaceOnUse">
<stop stop-color="#6DD0E7"/>
<stop offset="1" stop-color="#01A7DB"/>
</linearGradient>
<linearGradient id="paint115_linear_781_911" x1="377.049" y1="163.183" x2="380.008" y2="161.7" gradientUnits="userSpaceOnUse">
<stop stop-color="#F71873"/>
<stop offset="1" stop-color="#F8A629"/>
</linearGradient>
<linearGradient id="paint116_linear_781_911" x1="371.695" y1="147.947" x2="373.965" y2="146.809" gradientUnits="userSpaceOnUse">
<stop stop-color="#F8B54A"/>
<stop offset="1" stop-color="#F8A629"/>
</linearGradient>
<linearGradient id="paint117_linear_781_911" x1="364.454" y1="166.487" x2="366.76" y2="165.331" gradientUnits="userSpaceOnUse">
<stop stop-color="#F71873"/>
<stop offset="1" stop-color="#C6211B"/>
</linearGradient>
<linearGradient id="paint118_linear_781_911" x1="103.93" y1="96.9935" x2="106.335" y2="95.7882" gradientUnits="userSpaceOnUse">
<stop stop-color="#F8B54A"/>
<stop offset="1" stop-color="#F8A629"/>
</linearGradient>
<linearGradient id="paint119_linear_781_911" x1="84.8625" y1="103.34" x2="87.4551" y2="102.041" gradientUnits="userSpaceOnUse">
<stop stop-color="#F71873"/>
<stop offset="1" stop-color="#F8A629"/>
</linearGradient>
<linearGradient id="paint120_linear_781_911" x1="99.2042" y1="135.615" x2="101.35" y2="134.54" gradientUnits="userSpaceOnUse">
<stop stop-color="#BE1E68"/>
<stop offset="1" stop-color="#B5188D"/>
</linearGradient>
<linearGradient id="paint121_linear_781_911" x1="184.004" y1="54.6193" x2="185.971" y2="53.6336" gradientUnits="userSpaceOnUse">
<stop stop-color="#F71873"/>
<stop offset="1" stop-color="#F8A629"/>
</linearGradient>
<linearGradient id="paint122_linear_781_911" x1="184.106" y1="54.0468" x2="186.019" y2="53.0879" gradientUnits="userSpaceOnUse">
<stop stop-color="#F71873"/>
<stop offset="1" stop-color="#F8A629"/>
</linearGradient>
<linearGradient id="paint123_linear_781_911" x1="196.622" y1="32.5471" x2="199.108" y2="31.3015" gradientUnits="userSpaceOnUse">
<stop stop-color="#F8B54A"/>
<stop offset="1" stop-color="#F8A629"/>
</linearGradient>
<linearGradient id="paint124_linear_781_911" x1="196.709" y1="32.0586" x2="199.132" y2="30.8443" gradientUnits="userSpaceOnUse">
<stop stop-color="#F8B54A"/>
<stop offset="1" stop-color="#F8A629"/>
</linearGradient>
<linearGradient id="paint125_linear_781_911" x1="197.124" y1="25.4464" x2="199.573" y2="24.2161" gradientUnits="userSpaceOnUse">
<stop stop-color="#6DD0E7"/>
<stop offset="1" stop-color="#01A7DB"/>
</linearGradient>
<linearGradient id="paint126_linear_781_911" x1="172.355" y1="28.2359" x2="174.679" y2="27.0709" gradientUnits="userSpaceOnUse">
<stop stop-color="#6DD0E7"/>
<stop offset="1" stop-color="#01A7DB"/>
</linearGradient>
<linearGradient id="paint127_linear_781_911" x1="126.665" y1="142.601" x2="128.686" y2="141.588" gradientUnits="userSpaceOnUse">
<stop stop-color="#F44274"/>
<stop offset="1" stop-color="#E51F9A"/>
</linearGradient>
<linearGradient id="paint128_linear_781_911" x1="120.321" y1="121.038" x2="123.021" y2="119.685" gradientUnits="userSpaceOnUse">
<stop stop-color="#6DD0E7"/>
<stop offset="1" stop-color="#01A7DB"/>
</linearGradient>
<linearGradient id="paint129_linear_781_911" x1="119.091" y1="106.867" x2="122.649" y2="105.084" gradientUnits="userSpaceOnUse">
<stop stop-color="#F8B54A"/>
<stop offset="1" stop-color="#F8A629"/>
</linearGradient>
<linearGradient id="paint130_linear_781_911" x1="283.133" y1="106.562" x2="285.404" y2="105.424" gradientUnits="userSpaceOnUse">
<stop stop-color="#BE1E68"/>
<stop offset="1" stop-color="#B5188D"/>
</linearGradient>
<linearGradient id="paint131_linear_781_911" x1="313.557" y1="92.5663" x2="316.427" y2="91.128" gradientUnits="userSpaceOnUse">
<stop stop-color="#F71873"/>
<stop offset="1" stop-color="#F8A629"/>
</linearGradient>
<linearGradient id="paint132_linear_781_911" x1="318.884" y1="74.1807" x2="320.708" y2="73.2667" gradientUnits="userSpaceOnUse">
<stop stop-color="#B4DF86"/>
<stop offset="1" stop-color="#84C743"/>
</linearGradient>
<linearGradient id="paint133_linear_781_911" x1="188.373" y1="40.9348" x2="190.581" y2="39.8281" gradientUnits="userSpaceOnUse">
<stop stop-color="#B4DF86"/>
<stop offset="1" stop-color="#84C743"/>
</linearGradient>
<linearGradient id="paint134_linear_781_911" x1="166.957" y1="46.5455" x2="169.093" y2="45.4746" gradientUnits="userSpaceOnUse">
<stop stop-color="#F71873"/>
<stop offset="1" stop-color="#C6211B"/>
</linearGradient>
<linearGradient id="paint135_linear_781_911" x1="151.262" y1="30.765" x2="153.774" y2="29.5059" gradientUnits="userSpaceOnUse">
<stop stop-color="#FBE422"/>
<stop offset="1" stop-color="#C8D92B"/>
</linearGradient>
<linearGradient id="paint136_linear_781_911" x1="246.226" y1="149.534" x2="249.113" y2="148.087" gradientUnits="userSpaceOnUse">
<stop stop-color="#F44274"/>
<stop offset="1" stop-color="#E51F9A"/>
</linearGradient>
<linearGradient id="paint137_linear_781_911" x1="237.749" y1="160.92" x2="239.867" y2="159.858" gradientUnits="userSpaceOnUse">
<stop stop-color="#B5188D"/>
<stop offset="1" stop-color="#4E69AE"/>
</linearGradient>
<linearGradient id="paint138_linear_781_911" x1="226.488" y1="180.21" x2="229.036" y2="178.933" gradientUnits="userSpaceOnUse">
<stop stop-color="#F44274"/>
<stop offset="1" stop-color="#E51F9A"/>
</linearGradient>
<linearGradient id="paint139_linear_781_911" x1="219.64" y1="179.157" x2="222.43" y2="177.759" gradientUnits="userSpaceOnUse">
<stop stop-color="#6DD0E7"/>
<stop offset="1" stop-color="#01A7DB"/>
</linearGradient>
<linearGradient id="paint140_linear_781_911" x1="61.8894" y1="226.457" x2="49.4931" y2="186.648" gradientUnits="userSpaceOnUse">
<stop stop-color="#F44274"/>
<stop offset="1" stop-color="#E51F9A"/>
</linearGradient>
<linearGradient id="paint141_linear_781_911" x1="74.316" y1="174.226" x2="-10.4588" y2="234.547" gradientUnits="userSpaceOnUse">
<stop stop-color="#B5188D"/>
<stop offset="1" stop-color="#4E69AE"/>
</linearGradient>
<linearGradient id="paint142_linear_781_911" x1="166.019" y1="340.589" x2="138.617" y2="331.127" gradientUnits="userSpaceOnUse">
<stop stop-color="#F71873"/>
<stop offset="1" stop-color="#C6211B"/>
</linearGradient>
<linearGradient id="paint143_linear_781_911" x1="165.432" y1="341.276" x2="129.779" y2="343.298" gradientUnits="userSpaceOnUse">
<stop stop-color="#F8B54A"/>
<stop offset="1" stop-color="#F8A629"/>
</linearGradient>
<linearGradient id="paint144_linear_781_911" x1="163.31" y1="311.948" x2="147.216" y2="315.79" gradientUnits="userSpaceOnUse">
<stop stop-color="#F8B54A"/>
<stop offset="1" stop-color="#F8A629"/>
</linearGradient>
<linearGradient id="paint145_linear_781_911" x1="92.7586" y1="105.786" x2="124.736" y2="91.73" gradientUnits="userSpaceOnUse">
<stop stop-color="#6DD0E7"/>
<stop offset="1" stop-color="#01A7DB"/>
</linearGradient>
<linearGradient id="paint146_linear_781_911" x1="104.584" y1="115.149" x2="126.842" y2="105.365" gradientUnits="userSpaceOnUse">
<stop stop-color="#B4DF86"/>
<stop offset="1" stop-color="#84C743"/>
</linearGradient>
<linearGradient id="paint147_linear_781_911" x1="98.999" y1="72.7268" x2="98.3287" y2="96.2255" gradientUnits="userSpaceOnUse">
<stop stop-color="#6DD0E7"/>
<stop offset="1" stop-color="#01A7DB"/>
</linearGradient>
<linearGradient id="paint148_linear_781_911" x1="93.4372" y1="89.6673" x2="114.381" y2="86.3031" gradientUnits="userSpaceOnUse">
<stop stop-color="#B4DF86"/>
<stop offset="1" stop-color="#84C743"/>
</linearGradient>
<linearGradient id="paint149_linear_781_911" x1="-16.3851" y1="-6.71462" x2="7.15312" y2="-20.6733" gradientUnits="userSpaceOnUse">
<stop stop-color="#FBE422"/>
<stop offset="1" stop-color="#C8D92B"/>
</linearGradient>
<linearGradient id="paint150_linear_781_911" x1="-7.87131" y1="5.60339" x2="11.2382" y2="-12.785" gradientUnits="userSpaceOnUse">
<stop stop-color="#B4DF86"/>
<stop offset="1" stop-color="#84C743"/>
</linearGradient>
<linearGradient id="paint151_linear_781_911" x1="268.014" y1="140.591" x2="272.804" y2="155.626" gradientUnits="userSpaceOnUse">
<stop stop-color="#F71873"/>
<stop offset="1" stop-color="#F8A629"/>
</linearGradient>
<linearGradient id="paint152_linear_781_911" x1="277.341" y1="141.733" x2="286.871" y2="145.194" gradientUnits="userSpaceOnUse">
<stop stop-color="#F71873"/>
<stop offset="1" stop-color="#C6211B"/>
</linearGradient>
<linearGradient id="paint153_linear_781_911" x1="271.901" y1="141.031" x2="276.853" y2="149.592" gradientUnits="userSpaceOnUse">
<stop stop-color="#F71873"/>
<stop offset="1" stop-color="#C6211B"/>
</linearGradient>
<linearGradient id="paint154_linear_781_911" x1="259.992" y1="143.776" x2="267.847" y2="156.901" gradientUnits="userSpaceOnUse">
<stop stop-color="#F71873"/>
<stop offset="1" stop-color="#C6211B"/>
</linearGradient>
<clipPath id="clip0_781_911">
<rect width="657.73" height="509.83" fill="white" transform="matrix(-1 0 0 -1 530.73 363.83)"/>
</clipPath>
</defs>
</svg>
