<svg width="12" height="12" viewBox="0 0 12 12" fill="none" xmlns="http://www.w3.org/2000/svg">
<path d="M11.6595 10.4655C11.818 10.6241 11.907 10.839 11.907 11.0632C11.907 11.2874 11.818 11.5024 11.6595 11.6609C11.5009 11.8194 11.286 11.9084 11.0618 11.9084C10.8376 11.9084 10.6226 11.8194 10.4641 11.6609L6 7.19531L1.53445 11.6595C1.37594 11.818 1.16096 11.907 0.936797 11.907C0.712632 11.907 0.497649 11.818 0.339141 11.6595C0.180632 11.5009 0.0915833 11.286 0.0915833 11.0618C0.0915832 10.8376 0.180632 10.6227 0.339141 10.4641L4.80469 6L0.340547 1.53445C0.182038 1.37595 0.0929895 1.16096 0.0929895 0.936798C0.0929895 0.712633 0.182038 0.49765 0.340547 0.339142C0.499055 0.180633 0.714038 0.0915844 0.938203 0.0915844C1.16237 0.0915844 1.37735 0.180633 1.53586 0.339142L6 4.80469L10.4655 0.338439C10.6241 0.17993 10.839 0.0908813 11.0632 0.0908813C11.2874 0.0908814 11.5023 0.17993 11.6609 0.338439C11.8194 0.496947 11.9084 0.71193 11.9084 0.936095C11.9084 1.16026 11.8194 1.37524 11.6609 1.53375L7.19531 6L11.6595 10.4655Z" fill="#87748C"/>
</svg>
