<svg width="40" height="40" viewBox="0 0 40 40" fill="none" xmlns="http://www.w3.org/2000/svg">
<rect width="40" height="40" rx="20" fill="#DBBEE2"/>
<path d="M9.11892 26.7562V11.4982C9.11892 11.4359 9.08778 11.4359 9.05664 11.4359C9.05664 11.4359 8.99436 11.4359 8.83867 11.4359C8.21589 11.4359 6.72123 12.7126 5.50682 21.6183C5.44454 22.0543 5.8182 22.4591 6.25415 22.4591H7.06375C7.37514 22.4591 7.59311 22.7393 7.56198 23.0507L7.06375 26.8808C6.97034 27.5036 7.46856 28.0641 8.09133 28.0641C8.65183 28.0952 9.11892 27.6281 9.11892 26.7562Z" fill="#FFFCFD"/>
<path d="M32.94 11.7162C32.6909 11.7473 32.5041 11.9965 32.5041 12.2456V15.8265C32.5041 16.0134 32.4107 16.2002 32.2238 16.2936C31.9124 16.4493 31.5388 16.2002 31.5388 15.8577V12.2456C31.5388 11.9653 31.352 11.7162 31.0717 11.7162C31.0406 11.7162 31.0406 11.7162 31.0094 11.7162C30.9783 11.7162 30.9783 11.7162 30.9471 11.7162C30.6669 11.7473 30.4801 11.9965 30.4801 12.2456V15.8577C30.4801 16.2002 30.1375 16.4493 29.795 16.2936C29.6082 16.2002 29.5148 16.0134 29.5148 15.8265V12.2456C29.5148 11.9965 29.3279 11.7473 29.0788 11.7162C28.7674 11.6539 28.4872 11.903 28.4872 12.2144V15.702C28.4872 16.8541 28.7674 17.8505 29.577 18.1308L29.9196 18.2553C30.0753 18.3176 30.1687 18.4422 30.231 18.5667V19.0027L29.8573 24.9502L29.7327 26.476C29.6705 27.2233 30.2621 27.8461 30.9783 27.8461C31.7256 27.8461 32.2861 27.2233 32.255 26.476L32.1304 24.9502L31.7568 19.0027V18.5667C31.7879 18.411 31.9124 18.3176 32.0681 18.2553L32.4107 18.1308C33.2203 17.8505 33.5005 16.7918 33.5005 15.702V12.2144C33.5317 11.903 33.2514 11.6539 32.94 11.7162Z" fill="#FFFCFD"/>
<path d="M19.1768 11C14.3502 11 10.4268 14.9235 10.4268 19.75C10.4268 24.5765 14.3502 28.5 19.1768 28.5C24.0033 28.5 27.9268 24.5765 27.9268 19.75C27.9268 14.9235 24.0033 11 19.1768 11ZM19.1768 26.04C15.6892 26.04 12.8867 23.2375 12.8867 19.75C12.8867 16.2625 15.6892 13.46 19.1768 13.46C22.6643 13.46 25.4668 16.2625 25.4668 19.75C25.4668 23.2375 22.6332 26.04 19.1768 26.04Z" fill="#FFFCFD"/>
<path d="M22.346 22.9178C24.0971 21.1667 24.0971 18.3276 22.346 16.5765C20.5949 14.8254 17.7558 14.8254 16.0047 16.5765C14.2536 18.3276 14.2536 21.1667 16.0047 22.9178C17.7558 24.6689 20.5949 24.6689 22.346 22.9178Z" fill="#FFFCFD"/>
</svg>
