<svg width="22" height="21" viewBox="0 0 22 21" fill="none" xmlns="http://www.w3.org/2000/svg">
<path d="M11.0001 6C10.11 6 9.24001 6.26392 8.49999 6.75838C7.75997 7.25285 7.18319 7.95565 6.8426 8.77792C6.502 9.60019 6.41289 10.505 6.58652 11.3779C6.76016 12.2508 7.18874 13.0526 7.81808 13.682C8.44741 14.3113 9.24924 14.7399 10.1221 14.9135C10.9951 15.0872 11.8999 14.9981 12.7221 14.6575C13.5444 14.3169 14.2472 13.7401 14.7417 13.0001C15.2361 12.26 15.5001 11.39 15.5001 10.5C15.4988 9.3069 15.0243 8.16303 14.1807 7.31939C13.337 6.47574 12.1931 6.00124 11.0001 6ZM11.0001 13.5C10.4067 13.5 9.82669 13.3241 9.33335 12.9944C8.84 12.6648 8.45548 12.1962 8.22842 11.648C8.00135 11.0999 7.94194 10.4967 8.0577 9.91473C8.17346 9.33278 8.45918 8.79823 8.87874 8.37868C9.29829 7.95912 9.83284 7.6734 10.4148 7.55764C10.9967 7.44189 11.5999 7.5013 12.1481 7.72836C12.6963 7.95542 13.1648 8.33994 13.4945 8.83329C13.8241 9.32663 14.0001 9.90665 14.0001 10.5C14.0001 11.2956 13.684 12.0587 13.1214 12.6213C12.5588 13.1839 11.7957 13.5 11.0001 13.5ZM21.3069 8.55093C21.286 8.44532 21.2427 8.34544 21.1797 8.25809C21.1168 8.17073 21.0358 8.09795 20.9422 8.04468L18.1457 6.45093L18.1344 3.29906C18.1341 3.19051 18.1102 3.08333 18.0644 2.98492C18.0186 2.88651 17.952 2.79921 17.8691 2.72906C16.8547 1.87096 15.6865 1.21337 14.4266 0.791247C14.3274 0.757666 14.2223 0.745238 14.1179 0.754765C14.0136 0.764292 13.9125 0.795561 13.821 0.84656L11.0001 2.42343L8.17631 0.843747C8.08476 0.792462 7.98348 0.760956 7.87899 0.751267C7.77451 0.741577 7.66916 0.75392 7.56974 0.787497C6.31082 1.21271 5.14395 1.87281 4.13099 2.73281C4.04828 2.80286 3.98172 2.89 3.93592 2.98824C3.89012 3.08648 3.86616 3.19348 3.86568 3.30187L3.85162 6.45656L1.05506 8.05031C0.961495 8.10357 0.880498 8.17636 0.81757 8.26371C0.754643 8.35107 0.711259 8.45095 0.690369 8.55656C0.434428 9.8427 0.434428 11.1667 0.690369 12.4528C0.711259 12.5584 0.754643 12.6583 0.81757 12.7457C0.880498 12.833 0.961495 12.9058 1.05506 12.9591L3.85162 14.5528L3.86287 17.7047C3.86321 17.8132 3.88711 17.9204 3.93291 18.0188C3.97872 18.1172 4.04534 18.2045 4.12818 18.2747C5.14262 19.1328 6.31083 19.7904 7.57068 20.2125C7.66989 20.2461 7.77504 20.2585 7.87935 20.249C7.98366 20.2395 8.08482 20.2082 8.17631 20.1572L11.0001 18.5766L13.8238 20.1562C13.9356 20.2185 14.0615 20.2508 14.1894 20.25C14.2713 20.25 14.3527 20.2367 14.4304 20.2106C15.6891 19.786 16.856 19.1265 17.8691 18.2672C17.9518 18.1971 18.0184 18.11 18.0642 18.0118C18.11 17.9135 18.134 17.8065 18.1344 17.6981L18.1485 14.5434L20.9451 12.9497C21.0386 12.8964 21.1196 12.8236 21.1825 12.7363C21.2455 12.6489 21.2889 12.549 21.3097 12.4434C21.5643 11.1583 21.5633 9.83568 21.3069 8.55093ZM19.9007 11.8237L17.2222 13.3472C17.1049 13.4139 17.0077 13.5111 16.941 13.6284C16.8866 13.7222 16.8294 13.8216 16.7713 13.9153C16.6969 14.0335 16.6573 14.1703 16.6569 14.31L16.6429 17.3334C15.9229 17.8988 15.1209 18.3509 14.2644 18.6741L11.5626 17.1684C11.4504 17.1064 11.3242 17.0741 11.196 17.0747H11.1782C11.0647 17.0747 10.9504 17.0747 10.8369 17.0747C10.7028 17.0713 10.5701 17.1037 10.4526 17.1684L7.74881 18.6778C6.89053 18.3571 6.08627 17.9072 5.36381 17.3437L5.35349 14.325C5.35303 14.185 5.31341 14.048 5.23912 13.9294C5.18099 13.8356 5.12381 13.7419 5.07037 13.6425C5.00411 13.5233 4.90695 13.4242 4.78912 13.3556L2.10787 11.8284C1.96912 10.9508 1.96912 10.0567 2.10787 9.17906L4.78162 7.65281C4.89897 7.58608 4.99614 7.48891 5.06287 7.37156C5.11724 7.27781 5.17443 7.17844 5.23256 7.08469C5.30696 6.96646 5.34659 6.82969 5.34693 6.69L5.36099 3.66656C6.08093 3.1012 6.88299 2.64911 7.73943 2.32593L10.4376 3.83156C10.555 3.89665 10.6877 3.92903 10.8219 3.92531C10.9354 3.92531 11.0497 3.92531 11.1632 3.92531C11.2973 3.92866 11.43 3.89631 11.5476 3.83156L14.2513 2.32218C15.1096 2.64288 15.9138 3.09275 16.6363 3.65625L16.6466 6.675C16.6471 6.81496 16.6867 6.952 16.761 7.07062C16.8191 7.16437 16.8763 7.25812 16.9297 7.3575C16.996 7.47667 17.0932 7.57577 17.211 7.64437L19.8922 9.17156C20.0328 10.0499 20.0344 10.9449 19.8969 11.8237H19.9007Z" fill="#87748C"/>
</svg>
